<svg width="82" height="50" viewBox="0 0 82 50" fill="none" xmlns="http://www.w3.org/2000/svg">
<mask id="mask0_2607_11" style="mask-type:luminance" maskUnits="userSpaceOnUse" x="17" y="0" width="45" height="19">
<path d="M17.1682 0.450104H61.2993V18.2383H17.1682V0.450104Z" fill="white"/>
</mask>
<g mask="url(#mask0_2607_11)">
<path d="M44.9649 45.6001C32.7067 45.6001 22.7698 36.0101 22.7698 24.1821C22.7698 12.3532 32.7067 2.76418 44.9649 2.76418C51.3122 2.76418 57.0354 5.33566 61.0817 9.4564C56.5756 3.96963 49.6107 0.449036 41.7934 0.449036C28.2114 0.449036 17.2002 11.0746 17.2002 24.1821C17.2002 37.2886 28.2114 47.9142 41.7934 47.9142C49.6107 47.9142 56.5756 44.3936 61.0817 38.9069C57.0354 43.0276 51.3122 45.6001 44.9649 45.6001Z" fill="#118C5E"/>
</g>
<mask id="mask1_2607_11" style="mask-type:luminance" maskUnits="userSpaceOnUse" x="30" y="4" width="36" height="15">
<path d="M30.4397 4.79111H65.5054V18.2383H30.4397V4.79111Z" fill="white"/>
</mask>
<g mask="url(#mask1_2607_11)">
<path d="M45.6125 4.96303C39.5394 4.96303 34.1021 7.58597 30.4495 11.7211C34.0093 8.50627 38.7937 6.53803 44.0539 6.53803C55.0534 6.53803 63.9716 15.1419 63.9716 25.7561C63.9716 30.51 62.1815 34.8603 59.218 38.2151C63.1011 34.7079 65.528 29.7183 65.528 24.1822C65.528 13.5669 56.6119 4.96303 45.6125 4.96303Z" fill="#75D481"/>
</g>
<mask id="mask2_2607_11" style="mask-type:luminance" maskUnits="userSpaceOnUse" x="17" y="31" width="45" height="19">
<path d="M17.4434 31.7051H61.5723V49.4501H17.4434V31.7051Z" fill="white"/>
</mask>
<g mask="url(#mask2_2607_11)">
<path d="M45.239 4.30008C32.9819 4.30008 23.0449 13.8901 23.0449 25.718C23.0449 37.547 32.9819 47.137 45.239 47.137C51.5874 47.137 57.3106 44.5645 61.3568 40.4438C56.8508 45.9306 49.8859 49.4511 42.0686 49.4511C28.4865 49.4511 17.4753 38.8256 17.4753 25.718C17.4753 12.6116 28.4865 1.98596 42.0686 1.98596C49.8859 1.98596 56.8508 5.50655 61.3568 10.9933C57.3106 6.87258 51.5874 4.30008 45.239 4.30008Z" fill="#118C5E"/>
</g>
<mask id="mask3_2607_11" style="mask-type:luminance" maskUnits="userSpaceOnUse" x="30" y="31" width="36" height="15">
<path d="M30.7129 31.7051H65.7807V45.1111H30.7129V31.7051Z" fill="white"/>
</mask>
<g mask="url(#mask3_2607_11)">
<path d="M45.8876 44.9372C39.8145 44.9372 34.3772 42.3153 30.7246 38.1791C34.2844 41.3939 39.0689 43.3622 44.3291 43.3622C55.3285 43.3622 64.2467 34.7583 64.2467 24.1441C64.2467 19.3902 62.4567 15.0399 59.4932 11.6851C63.3762 15.1923 65.8031 20.1819 65.8031 25.718C65.8031 36.3333 56.8871 44.9372 45.8876 44.9372Z" fill="#75D481"/>
</g>
<g filter="url(#filter0_d_2607_11)">
<path d="M10.9816 22.8501L8.55759 28.4501H7.27759L4.86159 22.8501H6.26159L7.96559 26.8501L9.69359 22.8501H10.9816ZM11.4492 22.8501H12.7452V28.4501H11.4492V22.8501ZM18.4102 27.4101V28.4501H14.0742V22.8501H18.3062V23.8901H15.3622V25.1061H17.9622V26.1141H15.3622V27.4101H18.4102ZM22.1057 28.5461C21.5351 28.5461 21.0177 28.4234 20.5537 28.1781C20.0951 27.9274 19.7324 27.5834 19.4657 27.1461C19.2044 26.7034 19.0737 26.2048 19.0737 25.6501C19.0737 25.0954 19.2044 24.5994 19.4657 24.1621C19.7324 23.7194 20.0951 23.3754 20.5537 23.1301C21.0177 22.8794 21.5377 22.7541 22.1137 22.7541C22.5991 22.7541 23.0364 22.8394 23.4257 23.0101C23.8204 23.1808 24.1511 23.4261 24.4177 23.7461L23.5857 24.5141C23.2071 24.0768 22.7377 23.8581 22.1777 23.8581C21.8311 23.8581 21.5217 23.9354 21.2497 24.0901C20.9777 24.2394 20.7644 24.4501 20.6097 24.7221C20.4604 24.9941 20.3857 25.3034 20.3857 25.6501C20.3857 25.9968 20.4604 26.3061 20.6097 26.5781C20.7644 26.8501 20.9777 27.0634 21.2497 27.2181C21.5217 27.3674 21.8311 27.4421 22.1777 27.4421C22.7377 27.4421 23.2071 27.2208 23.5857 26.7781L24.4177 27.5461C24.1511 27.8714 23.8204 28.1194 23.4257 28.2901C23.0311 28.4608 22.5911 28.5461 22.1057 28.5461ZM30.4289 22.8501V28.4501H29.3649L26.5729 25.0501V28.4501H25.2929V22.8501H26.3649L29.1489 26.2501V22.8501H30.4289ZM34.2418 28.5461C33.4418 28.5461 32.8178 28.3248 32.3698 27.8821C31.9272 27.4394 31.7058 26.8074 31.7058 25.9861V22.8501H33.0018V25.9381C33.0018 26.9408 33.4178 27.4421 34.2498 27.4421C34.6552 27.4421 34.9645 27.3221 35.1778 27.0821C35.3912 26.8368 35.4978 26.4554 35.4978 25.9381V22.8501H36.7778V25.9861C36.7778 26.8074 36.5538 27.4394 36.1058 27.8821C35.6632 28.3248 35.0418 28.5461 34.2418 28.5461ZM40.7705 28.5461C40.1892 28.5461 39.6639 28.4208 39.1945 28.1701C38.7305 27.9194 38.3652 27.5754 38.0985 27.1381C37.8372 26.6954 37.7065 26.1994 37.7065 25.6501C37.7065 25.1008 37.8372 24.6074 38.0985 24.1701C38.3652 23.7274 38.7305 23.3808 39.1945 23.1301C39.6639 22.8794 40.1892 22.7541 40.7705 22.7541C41.3519 22.7541 41.8745 22.8794 42.3385 23.1301C42.8025 23.3808 43.1679 23.7274 43.4345 24.1701C43.7012 24.6074 43.8345 25.1008 43.8345 25.6501C43.8345 26.1994 43.7012 26.6954 43.4345 27.1381C43.1679 27.5754 42.8025 27.9194 42.3385 28.1701C41.8745 28.4208 41.3519 28.5461 40.7705 28.5461ZM40.7705 27.4421C41.1012 27.4421 41.3999 27.3674 41.6665 27.2181C41.9332 27.0634 42.1412 26.8501 42.2905 26.5781C42.4452 26.3061 42.5225 25.9968 42.5225 25.6501C42.5225 25.3034 42.4452 24.9941 42.2905 24.7221C42.1412 24.4501 41.9332 24.2394 41.6665 24.0901C41.3999 23.9354 41.1012 23.8581 40.7705 23.8581C40.4399 23.8581 40.1412 23.9354 39.8745 24.0901C39.6079 24.2394 39.3972 24.4501 39.2425 24.7221C39.0932 24.9941 39.0185 25.3034 39.0185 25.6501C39.0185 25.9968 39.0932 26.3061 39.2425 26.5781C39.3972 26.8501 39.6079 27.0634 39.8745 27.2181C40.1412 27.3674 40.4399 27.4421 40.7705 27.4421ZM47.4885 28.5461C46.9179 28.5461 46.4005 28.4234 45.9365 28.1781C45.4779 27.9274 45.1152 27.5834 44.8485 27.1461C44.5872 26.7034 44.4565 26.2048 44.4565 25.6501C44.4565 25.0954 44.5872 24.5994 44.8485 24.1621C45.1152 23.7194 45.4779 23.3754 45.9365 23.1301C46.4005 22.8794 46.9205 22.7541 47.4965 22.7541C47.9819 22.7541 48.4192 22.8394 48.8085 23.0101C49.2032 23.1808 49.5339 23.4261 49.8005 23.7461L48.9685 24.5141C48.5899 24.0768 48.1205 23.8581 47.5605 23.8581C47.2139 23.8581 46.9045 23.9354 46.6325 24.0901C46.3605 24.2394 46.1472 24.4501 45.9925 24.7221C45.8432 24.9941 45.7685 25.3034 45.7685 25.6501C45.7685 25.9968 45.8432 26.3061 45.9925 26.5781C46.1472 26.8501 46.3605 27.0634 46.6325 27.2181C46.9045 27.3674 47.2139 27.4421 47.5605 27.4421C48.1205 27.4421 48.5899 27.2208 48.9685 26.7781L49.8005 27.5461C49.5339 27.8714 49.2032 28.1194 48.8085 28.2901C48.4139 28.4608 47.9739 28.5461 47.4885 28.5461ZM55.8117 22.8501V28.4501H54.7477L51.9557 25.0501V28.4501H50.6757V22.8501H51.7477L54.5317 26.2501V22.8501H55.8117ZM60.9207 25.5621H62.1047V27.8341C61.8007 28.0634 61.4487 28.2394 61.0487 28.3621C60.6487 28.4848 60.246 28.5461 59.8407 28.5461C59.2593 28.5461 58.7367 28.4234 58.2727 28.1781C57.8087 27.9274 57.4433 27.5834 57.1767 27.1461C56.9153 26.7034 56.7847 26.2048 56.7847 25.6501C56.7847 25.0954 56.9153 24.5994 57.1767 24.1621C57.4433 23.7194 57.8113 23.3754 58.2807 23.1301C58.75 22.8794 59.278 22.7541 59.8647 22.7541C60.3553 22.7541 60.8007 22.8368 61.2007 23.0021C61.6007 23.1674 61.9367 23.4074 62.2087 23.7221L61.3767 24.4901C60.9767 24.0688 60.494 23.8581 59.9287 23.8581C59.5713 23.8581 59.254 23.9328 58.9767 24.0821C58.6993 24.2314 58.4833 24.4421 58.3287 24.7141C58.174 24.9861 58.0967 25.2981 58.0967 25.6501C58.0967 25.9968 58.174 26.3061 58.3287 26.5781C58.4833 26.8501 58.6967 27.0634 58.9687 27.2181C59.246 27.3674 59.5607 27.4421 59.9127 27.4421C60.286 27.4421 60.622 27.3621 60.9207 27.2021V25.5621ZM66.0205 28.5461C65.4392 28.5461 64.9139 28.4208 64.4445 28.1701C63.9805 27.9194 63.6152 27.5754 63.3485 27.1381C63.0872 26.6954 62.9565 26.1994 62.9565 25.6501C62.9565 25.1008 63.0872 24.6074 63.3485 24.1701C63.6152 23.7274 63.9805 23.3808 64.4445 23.1301C64.9139 22.8794 65.4392 22.7541 66.0205 22.7541C66.6019 22.7541 67.1245 22.8794 67.5885 23.1301C68.0525 23.3808 68.4179 23.7274 68.6845 24.1701C68.9512 24.6074 69.0845 25.1008 69.0845 25.6501C69.0845 26.1994 68.9512 26.6954 68.6845 27.1381C68.4179 27.5754 68.0525 27.9194 67.5885 28.1701C67.1245 28.4208 66.6019 28.5461 66.0205 28.5461ZM66.0205 27.4421C66.3512 27.4421 66.6499 27.3674 66.9165 27.2181C67.1832 27.0634 67.3912 26.8501 67.5405 26.5781C67.6952 26.3061 67.7725 25.9968 67.7725 25.6501C67.7725 25.3034 67.6952 24.9941 67.5405 24.7221C67.3912 24.4501 67.1832 24.2394 66.9165 24.0901C66.6499 23.9354 66.3512 23.8581 66.0205 23.8581C65.6899 23.8581 65.3912 23.9354 65.1245 24.0901C64.8579 24.2394 64.6472 24.4501 64.4925 24.7221C64.3432 24.9941 64.2685 25.3034 64.2685 25.6501C64.2685 25.9968 64.3432 26.3061 64.4925 26.5781C64.6472 26.8501 64.8579 27.0634 65.1245 27.2181C65.3912 27.3674 65.6899 27.4421 66.0205 27.4421ZM73.6684 27.2501H71.0684L70.5724 28.4501H69.2444L71.7404 22.8501H73.0204L75.5244 28.4501H74.1644L73.6684 27.2501ZM73.2604 26.2661L72.3724 24.1221L71.4844 26.2661H73.2604ZM76.1054 22.8501H77.4014V28.4501H76.1054V22.8501Z" fill="white"/>
</g>
<defs>
<filter id="filter0_d_2607_11" x="0.861572" y="22.7541" width="80.5398" height="13.792" filterUnits="userSpaceOnUse" color-interpolation-filters="sRGB">
<feFlood flood-opacity="0" result="BackgroundImageFix"/>
<feColorMatrix in="SourceAlpha" type="matrix" values="0 0 0 0 0 0 0 0 0 0 0 0 0 0 0 0 0 0 127 0" result="hardAlpha"/>
<feOffset dy="4"/>
<feGaussianBlur stdDeviation="2"/>
<feComposite in2="hardAlpha" operator="out"/>
<feColorMatrix type="matrix" values="0 0 0 0 0 0 0 0 0 0 0 0 0 0 0 0 0 0 0.25 0"/>
<feBlend mode="normal" in2="BackgroundImageFix" result="effect1_dropShadow_2607_11"/>
<feBlend mode="normal" in="SourceGraphic" in2="effect1_dropShadow_2607_11" result="shape"/>
</filter>
</defs>
</svg>
