<svg width="42" height="42" viewBox="0 0 42 42" fill="none" xmlns="http://www.w3.org/2000/svg">
<path d="M41.4324 24.0532C41.3464 24.0532 41.2639 24.0191 41.2031 23.9582C41.1423 23.8974 41.1081 23.8149 41.1081 23.7289V21.9438C41.1081 21.8578 41.1423 21.7753 41.2031 21.7145C41.2639 21.6537 41.3464 21.6195 41.4324 21.6195C41.5184 21.6195 41.6009 21.6537 41.6617 21.7145C41.7226 21.7753 41.7567 21.8578 41.7567 21.9438V23.7289C41.7567 23.8149 41.7226 23.8974 41.6617 23.9582C41.6009 24.0191 41.5184 24.0532 41.4324 24.0532Z" fill="#3372DB"/>
<path d="M40.8311 41.7633H1.16885C0.923409 41.7631 0.688074 41.6655 0.514523 41.492C0.340973 41.3184 0.243397 41.0831 0.243225 40.8377V1.17538C0.243397 0.92994 0.340973 0.694604 0.514523 0.521054C0.688074 0.347503 0.923409 0.249928 1.16885 0.249756H40.8311C41.0766 0.249928 41.3119 0.347503 41.4854 0.521054C41.659 0.694604 41.7566 0.92994 41.7567 1.17538V17.7373C41.7567 17.8233 41.7226 17.9058 41.6617 17.9667C41.6009 18.0275 41.5184 18.0616 41.4324 18.0616C41.3464 18.0616 41.2639 18.0275 41.2031 17.9667C41.1423 17.9058 41.1081 17.8233 41.1081 17.7373V1.17538C41.1081 1.10192 41.0789 1.03147 41.027 0.979528C40.975 0.927585 40.9046 0.898405 40.8311 0.898405H1.16885C1.09539 0.898405 1.02494 0.927585 0.972997 0.979528C0.921055 1.03147 0.891874 1.10192 0.891874 1.17538V40.8377C0.891874 40.874 0.899038 40.91 0.912957 40.9436C0.926876 40.9772 0.947278 41.0078 0.972997 41.0335C0.998717 41.0592 1.02925 41.0796 1.06285 41.0935C1.09646 41.1075 1.13247 41.1146 1.16885 41.1146H40.8311C40.8675 41.1146 40.9035 41.1075 40.9371 41.0935C40.9707 41.0796 41.0012 41.0592 41.027 41.0335C41.0527 41.0078 41.0731 40.9772 41.087 40.9436C41.1009 40.91 41.1081 40.874 41.1081 40.8377V33.8913C41.1081 33.8053 41.1423 33.7228 41.2031 33.6619C41.2639 33.6011 41.3464 33.5669 41.4324 33.5669C41.5184 33.5669 41.6009 33.6011 41.6617 33.6619C41.7226 33.7228 41.7567 33.8053 41.7567 33.8913V40.8377C41.7566 41.0831 41.659 41.3184 41.4854 41.492C41.3119 41.6655 41.0766 41.7631 40.8311 41.7633Z" fill="#3372DB"/>
<path d="M41.4324 30.0084C41.3464 30.0084 41.2639 29.9742 41.2031 29.9134C41.1423 29.8526 41.1081 29.7701 41.1081 29.6841V27.9327C41.1081 27.8467 41.1423 27.7642 41.2031 27.7034C41.2639 27.6426 41.3464 27.6084 41.4324 27.6084C41.5184 27.6084 41.6009 27.6426 41.6617 27.7034C41.7226 27.7642 41.7567 27.8467 41.7567 27.9327V29.6841C41.7567 29.7701 41.7226 29.8526 41.6617 29.9134C41.6009 29.9742 41.5184 30.0084 41.4324 30.0084ZM41.4324 10.5133H0.567549C0.481533 10.5133 0.39904 10.4791 0.338218 10.4183C0.277395 10.3575 0.243225 10.275 0.243225 10.1889C0.243225 10.1029 0.277395 10.0204 0.338218 9.95961C0.39904 9.89879 0.481533 9.86462 0.567549 9.86462H41.4324C41.5184 9.86462 41.6009 9.89879 41.6617 9.95961C41.7226 10.0204 41.7567 10.1029 41.7567 10.1889C41.7567 10.275 41.7226 10.3575 41.6617 10.4183C41.6009 10.4791 41.5184 10.5133 41.4324 10.5133ZM36.4248 7.4964C36.0066 7.49627 35.5979 7.37215 35.2502 7.13971C34.9026 6.90728 34.6316 6.57698 34.4717 6.19058C34.3117 5.80418 34.2699 5.37902 34.3516 4.96887C34.4333 4.55872 34.6347 4.182 34.9305 3.88633C35.2262 3.59067 35.603 3.38934 36.0132 3.3078C36.4234 3.22626 36.8485 3.26817 37.2349 3.42824C37.6212 3.58831 37.9514 3.85934 38.1838 4.20707C38.4161 4.5548 38.5401 4.96361 38.5401 5.38181C38.5397 5.94264 38.3168 6.48039 37.9201 6.8769C37.5235 7.27341 36.9857 7.49623 36.4248 7.4964ZM36.4248 3.91586C36.1349 3.91599 35.8516 4.00207 35.6106 4.16323C35.3696 4.32439 35.1818 4.55339 35.071 4.82126C34.9601 5.08914 34.9312 5.38387 34.9878 5.6682C35.0444 5.95252 35.1841 6.21367 35.3891 6.41862C35.5942 6.62357 35.8554 6.76312 36.1397 6.81963C36.4241 6.87614 36.7188 6.84708 36.9866 6.7361C37.2545 6.62513 37.4834 6.43724 37.6444 6.19618C37.8055 5.95512 37.8914 5.67172 37.8914 5.38181C37.8911 4.99301 37.7365 4.62024 37.4615 4.34538C37.1865 4.07051 36.8136 3.91603 36.4248 3.91586ZM30.0901 7.4964C29.6719 7.4964 29.2631 7.37238 28.9153 7.14003C28.5676 6.90767 28.2966 6.57742 28.1365 6.19103C27.9765 5.80464 27.9346 5.37946 28.0162 4.96927C28.0978 4.55908 28.2992 4.18229 28.5949 3.88656C28.8906 3.59083 29.2674 3.38944 29.6776 3.30784C30.0878 3.22625 30.513 3.26813 30.8994 3.42818C31.2858 3.58823 31.616 3.85926 31.8484 4.207C32.0807 4.55474 32.2047 4.96358 32.2047 5.38181C32.2042 5.94247 31.9813 6.48003 31.5848 6.87648C31.1884 7.27293 30.6508 7.49589 30.0901 7.4964ZM30.0901 3.91586C29.8002 3.91586 29.5168 4.00184 29.2757 4.16292C29.0346 4.324 28.8467 4.55295 28.7358 4.82081C28.6248 5.08868 28.5958 5.38343 28.6524 5.6678C28.7089 5.95217 28.8485 6.21337 29.0536 6.41839C29.2586 6.6234 29.5198 6.76302 29.8042 6.81959C30.0885 6.87615 30.3833 6.84712 30.6511 6.73617C30.919 6.62521 31.148 6.43732 31.309 6.19624C31.4701 5.95517 31.5561 5.67174 31.5561 5.38181C31.5556 4.99317 31.401 4.6206 31.1262 4.3458C30.8513 4.07099 30.4788 3.91638 30.0901 3.91586ZM23.7548 7.4964C23.3366 7.49627 22.9278 7.37215 22.5802 7.13971C22.2325 6.90728 21.9616 6.57698 21.8016 6.19058C21.6417 5.80418 21.5999 5.37902 21.6816 4.96887C21.7632 4.55872 21.9647 4.182 22.2604 3.88633C22.5562 3.59067 22.933 3.38934 23.3431 3.3078C23.7533 3.22626 24.1785 3.26817 24.5648 3.42824C24.9512 3.58831 25.2814 3.85934 25.5137 4.20707C25.746 4.5548 25.87 4.96361 25.87 5.38181C25.8695 5.94259 25.6465 6.48024 25.2499 6.87671C24.8533 7.27318 24.3156 7.49606 23.7548 7.4964ZM23.7548 3.91586C23.4649 3.91599 23.1815 4.00207 22.9405 4.16323C22.6995 4.32439 22.5118 4.55339 22.4009 4.82126C22.29 5.08914 22.2611 5.38387 22.3177 5.6682C22.3744 5.95252 22.514 6.21367 22.7191 6.41862C22.9241 6.62357 23.1853 6.76312 23.4697 6.81963C23.754 6.87614 24.0488 6.84708 24.3166 6.7361C24.5844 6.62513 24.8133 6.43724 24.9744 6.19618C25.1354 5.95512 25.2214 5.67172 25.2214 5.38181C25.2209 4.99306 25.0662 4.62039 24.7912 4.34557C24.5163 4.07074 24.1435 3.9162 23.7548 3.91586ZM28.1202 36.1355H13.8798C13.5611 36.1352 13.2556 36.0084 13.0302 35.7831C12.8049 35.5578 12.6782 35.2523 12.6778 34.9336V25.835C12.678 25.5162 12.8047 25.2105 13.03 24.9851C13.2554 24.7596 13.561 24.6327 13.8798 24.6324H28.1202C28.4388 24.6329 28.7441 24.7597 28.9693 24.9851C29.1945 25.2104 29.3212 25.5158 29.3215 25.8343V34.9336C29.3212 35.2521 29.1945 35.5576 28.9693 35.7829C28.7441 36.0082 28.4388 36.135 28.1202 36.1355ZM13.8798 25.281C13.7331 25.2812 13.5924 25.3396 13.4887 25.4433C13.385 25.547 13.3266 25.6877 13.3265 25.8343V34.9336C13.3266 35.0803 13.385 35.2209 13.4887 35.3246C13.5924 35.4284 13.7331 35.4867 13.8798 35.4869H28.1202C28.2668 35.4865 28.4072 35.4281 28.5108 35.3244C28.6144 35.2207 28.6727 35.0802 28.6728 34.9336V25.835C28.6727 25.6884 28.6144 25.5479 28.5108 25.4442C28.4072 25.3405 28.2668 25.282 28.1202 25.2817L13.8798 25.281Z" fill="#3372DB"/>
<path d="M26.1892 25.2811C26.1031 25.2811 26.0206 25.2469 25.9598 25.1861C25.899 25.1252 25.8648 25.0428 25.8648 24.9567V21.0058C25.8648 19.7156 25.3523 18.4782 24.4399 17.5658C23.5276 16.6535 22.2902 16.141 21 16.141C19.7097 16.141 18.4723 16.6535 17.56 17.5658C16.6476 18.4782 16.1351 19.7156 16.1351 21.0058V24.9567C16.1351 25.0428 16.1009 25.1252 16.0401 25.1861C15.9793 25.2469 15.8968 25.2811 15.8108 25.2811C15.7248 25.2811 15.6423 25.2469 15.5814 25.1861C15.5206 25.1252 15.4865 25.0428 15.4865 24.9567V21.0058C15.4865 19.5435 16.0673 18.1412 17.1013 17.1072C18.1353 16.0732 19.5377 15.4923 21 15.4923C22.4622 15.4923 23.8646 16.0732 24.8986 17.1072C25.9326 18.1412 26.5135 19.5435 26.5135 21.0058V24.9567C26.5135 25.0428 26.4793 25.1252 26.4185 25.1861C26.3577 25.2469 26.2752 25.2811 26.1892 25.2811ZM22.7027 32.9877H19.2973C19.2458 32.9877 19.1951 32.9756 19.1494 32.9522C19.1036 32.9288 19.064 32.8949 19.0339 32.8532C19.0038 32.8115 18.984 32.7632 18.9763 32.7124C18.9685 32.6616 18.9729 32.6096 18.9892 32.5609L19.488 31.0638C19.1776 30.7052 19.0074 30.2465 19.0086 29.7723C19.0086 29.2442 19.2184 28.7377 19.5919 28.3642C19.9653 27.9908 20.4718 27.781 21 27.781C21.5281 27.781 22.0346 27.9908 22.4081 28.3642C22.7815 28.7377 22.9913 29.2442 22.9913 29.7723C22.9926 30.2465 22.8223 30.7052 22.512 31.0638L23.0108 32.5609C23.027 32.6096 23.0314 32.6616 23.0237 32.7124C23.0159 32.7632 22.9961 32.8115 22.966 32.8532C22.9359 32.8949 22.8964 32.9288 22.8506 32.9522C22.8048 32.9756 22.7541 32.9877 22.7027 32.9877ZM19.7468 32.339H22.2532L21.8348 31.0832C21.8153 31.0246 21.813 30.9617 21.828 30.9019C21.8431 30.842 21.8749 30.7877 21.9197 30.7453C22.0534 30.6209 22.1599 30.4703 22.2327 30.3029C22.3054 30.1355 22.3429 29.9549 22.3427 29.7723C22.3427 29.4162 22.2012 29.0747 21.9494 28.8229C21.6976 28.5711 21.3561 28.4296 21 28.4296C20.6439 28.4296 20.3023 28.5711 20.0505 28.8229C19.7987 29.0747 19.6573 29.4162 19.6573 29.7723C19.657 29.9549 19.6945 30.1355 19.7673 30.3029C19.84 30.4703 19.9466 30.6209 20.0802 30.7453C20.125 30.7877 20.1569 30.842 20.1719 30.9019C20.187 30.9617 20.1846 31.0246 20.1652 31.0832L19.7468 32.339Z" fill="#3372DB"/>
</svg>
