<svg width="25" height="24" viewBox="0 0 25 24" fill="none" xmlns="http://www.w3.org/2000/svg">
<path d="M16.8335 6H13.8335C13.2812 6 12.8335 6.44772 12.8335 7V10H16.8335C16.9472 9.99748 17.0551 10.0504 17.1227 10.1419C17.1903 10.2334 17.2093 10.352 17.1735 10.46L16.4335 12.66C16.3653 12.8619 16.1766 12.9984 15.9635 13H12.8335V20.5C12.8335 20.7761 12.6096 21 12.3335 21H9.8335C9.55736 21 9.3335 20.7761 9.3335 20.5V13H7.8335C7.55736 13 7.3335 12.7761 7.3335 12.5V10.5C7.3335 10.2239 7.55736 10 7.8335 10H9.3335V7C9.3335 4.79086 11.1244 3 13.3335 3H16.8335C17.1096 3 17.3335 3.22386 17.3335 3.5V5.5C17.3335 5.77614 17.1096 6 16.8335 6Z" fill="#3372DB"/>
</svg>
