<svg width="33" height="32" viewBox="0 0 33 32" fill="none" xmlns="http://www.w3.org/2000/svg">
<rect x="0.333984" width="32" height="32" rx="16" fill="#EFF4FF"/>
<path d="M25.3076 10.7174C24.8432 11.3369 24.2818 11.8773 23.6451 12.3178C23.6451 12.4796 23.6451 12.6414 23.6451 12.8123C23.6502 15.7511 22.4763 18.5691 20.3866 20.6345C18.2968 22.6999 15.466 23.8399 12.5289 23.7989C10.8308 23.8046 9.15451 23.4169 7.63126 22.6661C7.54912 22.6302 7.49615 22.549 7.49646 22.4593V22.3604C7.49646 22.2313 7.60107 22.1267 7.73011 22.1267C9.39926 22.0716 11.0089 21.4929 12.3312 20.4724C10.8204 20.4419 9.46103 19.5469 8.83544 18.1707C8.80385 18.0956 8.81368 18.0093 8.86141 17.9432C8.90913 17.8771 8.98784 17.8407 9.06909 17.8471C9.52826 17.8932 9.99202 17.8505 10.435 17.7212C8.76723 17.375 7.51405 15.9904 7.3347 14.2957C7.32833 14.2144 7.36476 14.1357 7.43084 14.0879C7.49691 14.0402 7.58308 14.0303 7.65822 14.062C8.10578 14.2595 8.58893 14.3635 9.07808 14.3676C7.61668 13.4085 6.98545 11.5841 7.54139 9.92622C7.59878 9.76513 7.73665 9.64612 7.90434 9.61294C8.07202 9.57975 8.2448 9.63728 8.35916 9.76439C10.3312 11.8633 13.0409 13.114 15.9167 13.2528C15.8431 12.9589 15.8069 12.6568 15.8089 12.3537C15.8358 10.7647 16.819 9.34921 18.2982 8.76987C19.7773 8.19054 21.4597 8.56203 22.5578 9.71044C23.3062 9.56785 24.0298 9.31645 24.7055 8.96421C24.755 8.93331 24.8178 8.93331 24.8673 8.96421C24.8982 9.01373 24.8982 9.07652 24.8673 9.12604C24.54 9.87552 23.9871 10.5041 23.2857 10.9242C23.8999 10.853 24.5033 10.7081 25.083 10.4926C25.1318 10.4594 25.1959 10.4594 25.2447 10.4926C25.2856 10.5113 25.3162 10.5471 25.3283 10.5904C25.3404 10.6337 25.3328 10.6802 25.3076 10.7174Z" fill="#3372DB"/>
</svg>
