<svg width="32" height="32" viewBox="0 0 32 32" fill="none" xmlns="http://www.w3.org/2000/svg">
<rect width="32" height="32" rx="16" fill="#F9FAFB"/>
<path d="M24.9727 10.7174C24.5083 11.3369 23.9469 11.8773 23.3102 12.3178C23.3102 12.4796 23.3102 12.6414 23.3102 12.8123C23.3153 15.7511 22.1414 18.5691 20.0517 20.6345C17.9619 22.6999 15.1311 23.8399 12.1939 23.7989C10.4959 23.8046 8.81955 23.4169 7.2963 22.6661C7.21416 22.6302 7.16119 22.549 7.1615 22.4593V22.3604C7.1615 22.2313 7.26611 22.1267 7.39515 22.1267C9.0643 22.0716 10.6739 21.4929 11.9962 20.4724C10.4854 20.4419 9.12607 19.5469 8.50048 18.1707C8.46889 18.0956 8.47872 18.0093 8.52645 17.9432C8.57417 17.8771 8.65288 17.8407 8.73413 17.8471C9.1933 17.8932 9.65706 17.8505 10.1001 17.7212C8.43227 17.375 7.17909 15.9904 6.99974 14.2957C6.99337 14.2144 7.0298 14.1357 7.09588 14.0879C7.16195 14.0402 7.24812 14.0303 7.32326 14.062C7.77082 14.2595 8.25397 14.3635 8.74312 14.3676C7.28172 13.4085 6.65049 11.5841 7.20643 9.92622C7.26382 9.76513 7.40169 9.64612 7.56938 9.61294C7.73706 9.57975 7.90984 9.63728 8.0242 9.76439C9.99627 11.8633 12.7059 13.114 15.5818 13.2528C15.5082 12.9589 15.472 12.6568 15.474 12.3537C15.5009 10.7647 16.4841 9.34921 17.9633 8.76987C19.4424 8.19054 21.1248 8.56203 22.2229 9.71044C22.9713 9.56785 23.6949 9.31645 24.3706 8.96421C24.4201 8.93331 24.4829 8.93331 24.5324 8.96421C24.5633 9.01373 24.5633 9.07652 24.5324 9.12604C24.2051 9.87552 23.6522 10.5041 22.9508 10.9242C23.565 10.853 24.1684 10.7081 24.7481 10.4926C24.7969 10.4594 24.861 10.4594 24.9098 10.4926C24.9507 10.5113 24.9813 10.5471 24.9934 10.5904C25.0055 10.6337 24.9979 10.6802 24.9727 10.7174Z" fill="#98A2B3"/>
</svg>
