<svg width="20" height="20" viewBox="0 0 20 20" fill="none" xmlns="http://www.w3.org/2000/svg">
<path d="M9.99998 19.4231C8.69052 19.4231 7.4704 18.4252 6.5644 16.6131C5.67956 14.8435 5.19229 12.4949 5.19229 10C5.19229 7.50508 5.67956 5.1565 6.5644 3.38685C7.4704 1.57485 8.69052 0.576923 9.99998 0.576923C11.3094 0.576923 12.5296 1.57485 13.4356 3.38685C14.3204 5.1565 14.8077 7.50508 14.8077 10C14.8077 12.4949 14.3204 14.8435 13.4356 16.6131C12.5296 18.4252 11.3094 19.4231 9.99998 19.4231ZM9.99998 0.961539C8.84379 0.961539 7.74587 1.88396 6.9084 3.55885C6.04979 5.27615 5.5769 7.56365 5.5769 10C5.5769 12.4363 6.04979 14.7238 6.9084 16.4412C7.74587 18.1161 8.84379 19.0385 9.99998 19.0385C11.1562 19.0385 12.2541 18.1161 13.0916 16.4412C13.9502 14.7238 14.4231 12.4363 14.4231 10C14.4231 7.56365 13.9502 5.27615 13.0916 3.55885C12.2541 1.88396 11.1562 0.961539 9.99998 0.961539Z" fill="#1D2939"/>
<path d="M16.8794 16.3462C16.8466 16.3462 16.8144 16.3378 16.7857 16.3217C15.0632 15.3595 12.5899 14.8077 9.99998 14.8077C7.4101 14.8077 4.93679 15.3595 3.21421 16.3217C3.17608 16.3431 3.13181 16.3507 3.08872 16.3435C3.04562 16.3363 3.00627 16.3147 2.97713 16.2821C1.42933 14.5529 0.576904 12.3219 0.576904 10C0.576904 7.67808 1.42933 5.44708 2.97713 3.71789C3.00628 3.68534 3.04563 3.66369 3.08872 3.65649C3.13181 3.64929 3.17607 3.65697 3.21421 3.67827C4.93679 4.64046 7.4101 5.19231 9.99998 5.19231C12.5899 5.19231 15.0632 4.64046 16.7857 3.67827C16.8239 3.65697 16.8681 3.64929 16.9112 3.65649C16.9543 3.66369 16.9937 3.68534 17.0228 3.71789C18.5706 5.44708 19.4231 7.67808 19.4231 10C19.4231 12.3219 18.5706 14.553 17.0228 16.2821C17.0048 16.3023 16.9827 16.3184 16.958 16.3294C16.9333 16.3405 16.9065 16.3462 16.8794 16.3462ZM9.99998 14.4231C12.5863 14.4231 15.0664 14.9643 16.8368 15.9113C18.2577 14.2694 19.0384 12.1763 19.0384 10C19.0384 7.82373 18.2577 5.73062 16.8368 4.08865C15.0664 5.03573 12.5863 5.57692 9.99998 5.57692C7.41367 5.57692 4.93356 5.03573 3.16313 4.08865C1.74229 5.73062 0.96152 7.82373 0.96152 10C0.96152 12.1763 1.74229 14.2694 3.16313 15.9113C4.93356 14.9643 7.41367 14.4231 9.99998 14.4231Z" fill="#1D2939"/>
<path d="M9.99998 5.57692C7.34648 5.57692 4.80479 5.00727 3.02663 4.01404C3.00147 3.99997 2.97979 3.98043 2.9632 3.95686C2.9466 3.93328 2.93552 3.90628 2.93077 3.87785C2.92601 3.84941 2.92771 3.82028 2.93574 3.79259C2.94377 3.7649 2.95791 3.73937 2.97713 3.71789C4.7639 1.72177 7.32364 0.576923 9.99998 0.576923C12.6763 0.576923 15.2361 1.72177 17.0228 3.71789C17.0421 3.73937 17.0562 3.7649 17.0642 3.79259C17.0723 3.82028 17.074 3.84942 17.0692 3.87785C17.0645 3.90629 17.0534 3.93329 17.0368 3.95687C17.0202 3.98044 16.9985 3.99998 16.9733 4.01404C15.1952 5.00727 12.6535 5.57692 9.99998 5.57692ZM3.42937 3.79431C5.1394 4.68473 7.51602 5.19231 9.99998 5.19231C12.4839 5.19231 14.8606 4.68473 16.5706 3.79431C14.8661 1.99104 12.4854 0.961539 9.99998 0.961539C7.51452 0.961539 5.13383 1.99104 3.42937 3.79431ZM9.99998 19.4231C7.32367 19.4231 4.76394 18.2782 2.97713 16.2821C2.95789 16.2606 2.94373 16.2351 2.93569 16.2074C2.92765 16.1797 2.92594 16.1506 2.9307 16.1221C2.93545 16.0937 2.94654 16.0667 2.96315 16.0431C2.97976 16.0195 3.00145 16 3.02663 15.986C4.80479 14.9927 7.34648 14.4231 9.99998 14.4231C12.6535 14.4231 15.1952 14.9927 16.9733 15.986C16.9985 16 17.0202 16.0196 17.0368 16.0431C17.0534 16.0667 17.0645 16.0937 17.0692 16.1221C17.074 16.1506 17.0723 16.1797 17.0642 16.2074C17.0562 16.2351 17.0421 16.2606 17.0228 16.2821C15.236 18.2782 12.6763 19.4231 9.99998 19.4231ZM3.4294 16.2057C5.13383 18.009 7.51452 19.0385 9.99998 19.0385C12.4854 19.0385 14.8661 18.009 16.5706 16.2057C14.8606 15.3153 12.4839 14.8077 9.99998 14.8077C7.51602 14.8077 5.1394 15.3153 3.4294 16.2057ZM19.2307 10.1923H0.769212C0.718209 10.1923 0.669295 10.172 0.63323 10.136C0.597165 10.0999 0.576904 10.051 0.576904 10C0.576904 9.949 0.597165 9.90008 0.63323 9.86402C0.669295 9.82795 0.718209 9.80769 0.769212 9.80769H19.2307C19.337 9.80769 19.4231 9.89377 19.4231 10C19.4231 10.1062 19.337 10.1923 19.2307 10.1923Z" fill="#1D2939"/>
<path d="M9.99998 19.4231C9.94898 19.4231 9.90006 19.4028 9.864 19.3668C9.82793 19.3307 9.80767 19.2818 9.80767 19.2308V0.769231C9.80767 0.718228 9.82793 0.669314 9.864 0.633249C9.90006 0.597184 9.94898 0.576923 9.99998 0.576923C10.051 0.576923 10.0999 0.597184 10.136 0.633249C10.172 0.669314 10.1923 0.718228 10.1923 0.769231V19.2308C10.1923 19.2818 10.172 19.3307 10.136 19.3668C10.0999 19.4028 10.051 19.4231 9.99998 19.4231Z" fill="#1D2939"/>
</svg>
