<svg width="25" height="24" viewBox="0 0 25 24" fill="none" xmlns="http://www.w3.org/2000/svg">
<path fill-rule="evenodd" clip-rule="evenodd" d="M5.3335 3H19.3335C20.4381 3 21.3335 3.89543 21.3335 5V19C21.3335 20.1046 20.4381 21 19.3335 21H5.3335C4.22893 21 3.3335 20.1046 3.3335 19V5C3.3335 3.89543 4.22893 3 5.3335 3ZM8.3335 18C8.60964 18 8.8335 17.7761 8.8335 17.5V10.5C8.8335 10.2239 8.60964 10 8.3335 10H6.8335C6.55736 10 6.3335 10.2239 6.3335 10.5V17.5C6.3335 17.7761 6.55736 18 6.8335 18H8.3335ZM7.5835 9C6.75507 9 6.0835 8.32843 6.0835 7.5C6.0835 6.67157 6.75507 6 7.5835 6C8.41193 6 9.0835 6.67157 9.0835 7.5C9.0835 8.32843 8.41193 9 7.5835 9ZM17.8335 18C18.1096 18 18.3335 17.7761 18.3335 17.5V12.9C18.366 11.3108 17.1911 9.95452 15.6135 9.76C14.5105 9.65925 13.4418 10.1744 12.8335 11.1V10.5C12.8335 10.2239 12.6096 10 12.3335 10H10.8335C10.5574 10 10.3335 10.2239 10.3335 10.5V17.5C10.3335 17.7761 10.5574 18 10.8335 18H12.3335C12.6096 18 12.8335 17.7761 12.8335 17.5V13.75C12.8335 12.9216 13.5051 12.25 14.3335 12.25C15.1619 12.25 15.8335 12.9216 15.8335 13.75V17.5C15.8335 17.7761 16.0574 18 16.3335 18H17.8335Z" fill="#3372DB"/>
</svg>
