<svg width="33" height="32" viewBox="0 0 33 32" fill="none" xmlns="http://www.w3.org/2000/svg">
<rect x="0.333984" width="32" height="32" rx="16" fill="#EFF4FF"/>
<path fill-rule="evenodd" clip-rule="evenodd" d="M9.33398 7H23.334C24.4386 7 25.334 7.89543 25.334 9V23C25.334 24.1046 24.4386 25 23.334 25H9.33398C8.22941 25 7.33398 24.1046 7.33398 23V9C7.33398 7.89543 8.22941 7 9.33398 7ZM12.334 22C12.6101 22 12.834 21.7761 12.834 21.5V14.5C12.834 14.2239 12.6101 14 12.334 14H10.834C10.5578 14 10.334 14.2239 10.334 14.5V21.5C10.334 21.7761 10.5578 22 10.834 22H12.334ZM11.584 13C10.7556 13 10.084 12.3284 10.084 11.5C10.084 10.6716 10.7556 10 11.584 10C12.4124 10 13.084 10.6716 13.084 11.5C13.084 12.3284 12.4124 13 11.584 13ZM21.834 22C22.1101 22 22.334 21.7761 22.334 21.5V16.9C22.3665 15.3108 21.1916 13.9545 19.614 13.76C18.511 13.6593 17.4423 14.1744 16.834 15.1V14.5C16.834 14.2239 16.6101 14 16.334 14H14.834C14.5579 14 14.334 14.2239 14.334 14.5V21.5C14.334 21.7761 14.5579 22 14.834 22H16.334C16.6101 22 16.834 21.7761 16.834 21.5V17.75C16.834 16.9216 17.5056 16.25 18.334 16.25C19.1624 16.25 19.834 16.9216 19.834 17.75V21.5C19.834 21.7761 20.0579 22 20.334 22H21.834Z" fill="#3372DB"/>
</svg>
