<svg width="165" height="42" viewBox="0 0 165 42" fill="none" xmlns="http://www.w3.org/2000/svg">
<path d="M153.414 23.3297C153.414 26.5286 155.003 28.4398 157.636 28.4398C159.899 28.4398 161.09 27.004 161.446 25.1207H165C164.524 28.8379 161.822 31.5958 157.628 31.5958C153.003 31.5958 149.839 28.3046 149.839 23.3297C149.839 18.3548 152.997 15.0711 157.628 15.0711C161.828 15.0711 164.524 17.829 165 21.5462H161.446C161.099 19.6629 159.906 18.2271 157.636 18.2271C155.004 18.2271 153.414 20.1319 153.414 23.3297Z" fill="#3372DB"/>
<path d="M148.199 10.1316V13.7705H144.524V10.1316H148.199ZM148.143 15.4971V31.1698H144.582V15.4971H148.143Z" fill="#3372DB"/>
<path d="M131.515 22.8178V31.1698H127.953V10.1316H131.515V20.1104C132.224 16.9115 134.254 15.0711 137.169 15.0711C140.631 15.0711 142.612 17.6863 142.612 22.2351V31.1698H139.05V22.5903C139.05 19.6833 137.887 18.2196 135.524 18.2196C132.997 18.2196 131.515 19.8829 131.515 22.8178Z" fill="#3372DB"/>
<path d="M110.716 21.0064C110.716 25.6197 112.921 28.2842 116.682 28.2842C119.712 28.2842 121.599 26.5286 122.216 23.1387H125.934C125.125 28.4055 121.648 31.5969 116.675 31.5969C110.942 31.5969 106.969 27.3463 106.969 21.0064C106.969 14.6666 110.942 10.416 116.675 10.416C121.648 10.416 125.124 13.6074 125.934 18.8742H122.216C121.598 15.4843 119.712 13.7287 116.682 13.7287C112.923 13.7276 110.716 16.3932 110.716 21.0064Z" fill="#3372DB"/>
<path d="M105.321 31.0496C104.05 31.4123 102.93 31.5894 101.943 31.5894C98.6654 31.5894 96.9205 29.6063 96.9205 25.7678V18.3967H94.8778V15.4971H96.9205V11.8861H100.482V15.4971H105.321V18.3967H100.482V25.7742C100.482 27.7144 101.17 28.5965 102.73 28.5965C103.347 28.5965 104.185 28.4548 105.321 28.163V31.0496Z" fill="#3372DB"/>
<path d="M82.5435 22.8189V31.1709H78.9819V15.4971H82.5435V20.1104C83.2526 16.9115 85.2824 15.0711 88.1981 15.0711C91.6601 15.0711 93.6396 17.6863 93.6396 22.2351V31.1698H90.078V22.5903C90.078 19.6833 88.9147 18.2196 86.5517 18.2196C84.027 18.2196 82.5435 19.8829 82.5435 22.8189Z" fill="#3372DB"/>
<path d="M77.0024 10.1316V13.7705H73.3272V10.1316H77.0024ZM76.9456 15.4971V31.1698H73.384V15.4971H76.9456Z" fill="#3372DB"/>
<path d="M65.2496 23.7064V31.1698H61.688V15.4971H65.2496V20.7146C65.8955 17.4802 67.7122 15.4971 70.8903 15.4971H71.713V18.8667H70.5422C66.5136 18.8667 65.2496 20.4152 65.2496 23.7064Z" fill="#3372DB"/>
<path d="M42.7757 31.1698V10.842H52.2822C56.6954 10.842 59.7964 13.5924 59.7964 17.5017C59.7964 21.4185 56.6814 24.1903 52.2822 24.1903H46.5076V31.1698H42.7757ZM46.5076 20.9496H52.0412C54.5177 20.9496 56.0645 19.6275 56.0645 17.5028C56.0645 15.392 54.5391 14.0839 52.0915 14.0839H46.5076V20.9496Z" fill="#3372DB"/>
<path d="M20.0365 10.8609C20.0365 10.8598 20.0365 10.8598 20.0365 10.8598L17.5865 9.44292C17.5528 9.42336 17.5116 9.42336 17.478 9.44292L10.182 13.662C10.1094 13.7033 10.1094 13.8087 10.182 13.85L12.4694 15.1734C12.503 15.1929 12.5442 15.1929 12.5779 15.1734L20.0365 10.8609Z" fill="#3372DB"/>
<path fill-rule="evenodd" clip-rule="evenodd" d="M10.1809 22.5434C10.1809 22.5434 15.0268 25.3457 15.0279 25.3467C15.0279 25.3467 16.7557 26.3453 16.7568 26.3464C16.7578 26.3475 16.7589 26.3475 16.76 26.3485L16.9108 26.4355C16.9151 26.4387 16.9205 26.4409 16.9249 26.4431C16.927 26.4442 16.9303 26.4463 16.9325 26.4474C16.94 26.4507 16.9476 26.455 16.9552 26.4572C17.1331 26.5398 17.3316 26.5865 17.5409 26.5865C17.7329 26.5865 17.9173 26.5474 18.0843 26.4757L18.3869 26.3007C18.388 26.2996 18.3901 26.2986 18.3912 26.2975C18.3912 26.2975 25.044 22.4489 25.0462 22.4489C25.0462 22.4489 27.5494 21.0005 27.5505 21.0005C27.5505 21.0005 30.0537 19.5522 30.0548 19.5511C30.0548 19.5511 32.558 18.1038 32.5591 18.1027L35.0091 16.6859C35.0417 16.6663 35.0634 16.6304 35.0634 16.5913V11.8127C35.0634 11.2401 34.7738 10.7359 34.3335 10.4382C34.3313 10.436 34.328 10.4339 34.3248 10.4328L34.1371 10.3241C34.1371 10.3241 27.5505 6.51576 27.5494 6.51467C27.5494 6.51467 25.0462 5.0663 25.044 5.0663C25.044 5.0663 18.4574 1.25577 18.4563 1.25469L18.2578 1.1406C18.2546 1.13734 18.2513 1.13625 18.2481 1.13517C18.0311 1.02977 17.7882 0.971098 17.5311 0.971098C17.2763 0.971098 17.0333 1.02869 16.8175 1.13408C16.8164 1.13299 16.8153 1.13408 16.8142 1.13517L16.5952 1.26229C16.5952 1.26229 7.51397 6.51467 7.51397 6.51576L0.699554 10.4556C0.275483 10.7544 0 11.2488 0 11.8083V30.1927C0 30.7534 0.277652 31.2489 0.702808 31.5477L0.963107 31.6987C0.963107 31.6987 16.6049 40.7442 16.606 40.7453L16.8045 40.8594C16.8077 40.8616 16.811 40.8637 16.8142 40.8648C17.0312 40.9702 17.2752 41.0289 17.5322 41.0289C17.7958 41.0289 18.0441 40.967 18.2654 40.8572L18.453 40.7475C18.4541 40.7475 18.4552 40.7464 18.4574 40.7453C18.4574 40.7453 25.044 36.9348 25.0462 36.9348C25.0462 36.9348 27.5483 35.4875 27.5505 35.4853L35.0091 31.1728C35.0417 31.1533 35.0634 31.1174 35.0634 31.0783V25.5347C35.0634 25.451 34.9723 25.3989 34.9007 25.4402C34.9007 25.4402 32.5591 26.794 32.558 26.7951C32.558 26.7951 27.5505 29.6918 27.5494 29.6929C27.5494 29.6929 25.0462 31.1402 25.0451 31.1413C25.0451 31.1413 22.5408 32.5886 22.5397 32.5897C22.5343 32.5929 22.53 32.5951 22.5245 32.5984C22.5104 32.6071 22.4953 32.6158 22.4812 32.6234C22.4573 32.6364 22.4345 32.6505 22.4107 32.6636C22.3792 32.682 22.3478 32.7005 22.3163 32.7179C22.2773 32.7407 22.2382 32.7635 22.1992 32.7853C22.1536 32.8113 22.1081 32.8385 22.0625 32.8646C22.0105 32.895 21.9595 32.9243 21.9074 32.9548C21.851 32.9874 21.7935 33.021 21.7371 33.0536C21.6753 33.0895 21.6146 33.1243 21.5528 33.1601C21.4877 33.1981 21.4226 33.2351 21.3575 33.2731C21.2892 33.3122 21.2209 33.3524 21.1526 33.3916C21.0821 33.4328 21.0116 33.473 20.9411 33.5143C20.8684 33.5556 20.7968 33.598 20.7241 33.6393C20.6515 33.6817 20.5777 33.724 20.5051 33.7664C20.4313 33.8088 20.3586 33.8512 20.2849 33.8935C20.2122 33.9359 20.1396 33.9783 20.0669 34.0196C19.9953 34.0609 19.9237 34.1021 19.8521 34.1434C19.7827 34.1836 19.7133 34.2238 19.6439 34.264C19.5767 34.3032 19.5105 34.3412 19.4433 34.3803C19.3804 34.4172 19.3164 34.4531 19.2535 34.49C19.1938 34.5248 19.1352 34.5585 19.0756 34.5933C19.0214 34.6248 18.9671 34.6563 18.9129 34.6878C18.8641 34.7161 18.8153 34.7443 18.7665 34.7726C18.7242 34.7975 18.6819 34.8214 18.6396 34.8464C18.6038 34.8671 18.5691 34.8877 18.5333 34.9073C18.5062 34.9236 18.478 34.9388 18.4509 34.9551C18.4313 34.966 18.4129 34.9768 18.3934 34.9877C18.3804 34.9953 18.3674 35.0029 18.3543 35.0105C18.3153 35.0344 18.2763 35.0561 18.2361 35.079C18.1982 35.1007 18.1602 35.1279 18.1212 35.1463C17.7296 35.3234 17.2752 35.3115 16.8912 35.1105L16.8468 35.0844L10.0779 31.1706C10.0443 31.1511 10.0237 31.1152 10.0237 31.0761V28.4293C10.0237 28.3456 10.1137 28.2935 10.1864 28.3358L16.8392 32.1833C16.8641 32.1974 16.8902 32.2105 16.9162 32.2235C16.9205 32.2268 16.9259 32.2289 16.9303 32.2311C16.9325 32.2322 16.9357 32.2344 16.9379 32.2355C16.9455 32.2387 16.9531 32.2431 16.9607 32.2452C17.1385 32.3278 17.337 32.3745 17.5463 32.3745C17.7383 32.3745 17.9227 32.3354 18.0897 32.2637C18.0984 32.2605 18.1071 32.2561 18.1157 32.2528L18.3619 32.1105C18.3619 32.1105 20.0409 31.1391 20.0419 31.138C20.0419 31.138 27.5548 26.7929 27.5559 26.7919C27.5559 26.7919 30.0591 25.3446 30.0602 25.3446C30.0602 25.3446 32.5634 23.8962 32.5645 23.8951L35.0146 22.4793C35.0471 22.4598 35.0688 22.4239 35.0688 22.3848V19.738C35.0688 19.6543 34.9777 19.6022 34.9061 19.6445C34.9061 19.6445 27.5559 23.8951 27.5548 23.8962C27.5548 23.8962 22.5462 26.7918 22.5462 26.7929C22.53 26.8027 22.5137 26.8114 22.4974 26.8212C22.4508 26.8484 22.4052 26.8744 22.3586 26.9016C22.287 26.9429 22.2154 26.9842 22.1428 27.0265C22.0506 27.0798 21.9573 27.1341 21.864 27.1874C21.7545 27.2515 21.645 27.3145 21.5343 27.3786C21.4118 27.4492 21.2892 27.5198 21.1667 27.5905C21.0365 27.6665 20.9053 27.7426 20.774 27.8186C20.6395 27.8958 20.504 27.974 20.3695 28.0522C20.235 28.1305 20.0994 28.2087 19.9649 28.2859C19.8348 28.3619 19.7046 28.4369 19.5745 28.5119C19.453 28.5825 19.3315 28.6531 19.2112 28.7226C19.1027 28.7857 18.9942 28.8476 18.8858 28.9106C18.7947 28.9628 18.7047 29.016 18.6136 29.0682C18.5441 29.1084 18.4758 29.1486 18.4064 29.1888C18.3565 29.217 18.3055 29.2464 18.2556 29.2757C18.0387 29.4039 17.7904 29.4745 17.5377 29.4745C17.3869 29.4745 17.2372 29.4495 17.0941 29.4017C16.9899 29.367 16.8967 29.3181 16.8012 29.2648C16.8012 29.2648 15.0334 28.2424 15.0323 28.2413C15.0323 28.2413 12.5291 26.794 12.5269 26.7919L10.0779 25.3761C10.0443 25.3565 10.0237 25.3207 10.0237 25.2815V22.6369C10.0183 22.5532 10.1083 22.5011 10.1809 22.5434ZM7.67665 15.2994C7.60399 15.2581 7.51397 15.3103 7.51397 15.394V29.5039C7.51397 29.5875 7.42395 29.6397 7.35128 29.5984L5.0639 28.275C5.03028 28.2554 5.00967 28.2196 5.00967 28.1805V13.8206C5.00967 13.7815 5.03028 13.7457 5.0639 13.7261L17.478 6.54618C17.5116 6.52662 17.5528 6.52662 17.5865 6.54618L25.0451 10.8598C25.0451 10.8598 25.0451 10.8598 25.0451 10.8609L12.5768 18.0723C12.5432 18.0919 12.5019 18.0919 12.4683 18.0723L7.67665 15.2994Z" fill="#3372DB"/>
</svg>
