<svg width="16" height="16" viewBox="0 0 16 16" fill="none" xmlns="http://www.w3.org/2000/svg">
<path fill-rule="evenodd" clip-rule="evenodd" d="M8 16C12.4183 16 16 12.4183 16 8C16 3.58172 12.4183 0 8 0C3.58172 0 0 3.58172 0 8C0 12.4183 3.58172 16 8 16ZM12.6909 5.7576C12.9252 5.52328 12.9252 5.14338 12.6909 4.90907C12.4566 4.67475 12.0767 4.67475 11.8424 4.90907L6.93333 9.81814L4.69093 7.57574C4.45662 7.34142 4.07672 7.34142 3.8424 7.57574C3.60809 7.81005 3.60809 8.18995 3.8424 8.42426L6.50907 11.0909C6.74338 11.3252 7.12328 11.3252 7.3576 11.0909L12.6909 5.7576Z" fill="#16B16D"/>
</svg>
