<svg width="25" height="24" viewBox="0 0 25 24" fill="none" xmlns="http://www.w3.org/2000/svg">
<path d="M21.3062 6.7174C20.8418 7.33692 20.2804 7.87733 19.6437 8.31776C19.6437 8.47959 19.6437 8.64142 19.6437 8.81225C19.6488 11.7511 18.4749 14.5691 16.3852 16.6345C14.2954 18.6999 11.4646 19.8399 8.52743 19.7989C6.82937 19.8046 5.15305 19.4169 3.6298 18.6661C3.54766 18.6302 3.49469 18.549 3.495 18.4593V18.3604C3.495 18.2313 3.59961 18.1267 3.72865 18.1267C5.3978 18.0716 7.0074 17.4929 8.32972 16.4724C6.81891 16.4419 5.45957 15.5469 4.83398 14.1707C4.80239 14.0956 4.81222 14.0093 4.85995 13.9432C4.90767 13.8771 4.98638 13.8407 5.06763 13.8471C5.5268 13.8932 5.99056 13.8505 6.43358 13.7212C4.76577 13.375 3.51259 11.9904 3.33324 10.2957C3.32687 10.2144 3.3633 10.1357 3.42938 10.0879C3.49545 10.0402 3.58162 10.0303 3.65676 10.062C4.10432 10.2595 4.58747 10.3635 5.07662 10.3676C3.61522 9.40846 2.98399 7.58405 3.53993 5.92622C3.59732 5.76513 3.73519 5.64612 3.90288 5.61294C4.07056 5.57975 4.24334 5.63728 4.3577 5.76439C6.32977 7.86325 9.03942 9.11396 11.9153 9.25279C11.8417 8.95885 11.8055 8.65676 11.8075 8.35372C11.8344 6.76472 12.8176 5.34921 14.2968 4.76987C15.7759 4.19054 17.4583 4.56203 18.5564 5.71044C19.3048 5.56785 20.0284 5.31645 20.7041 4.96421C20.7536 4.93331 20.8164 4.93331 20.8659 4.96421C20.8968 5.01373 20.8968 5.07652 20.8659 5.12604C20.5386 5.87552 19.9857 6.50412 19.2843 6.92419C19.8985 6.85296 20.5019 6.70807 21.0816 6.49264C21.1304 6.45942 21.1945 6.45942 21.2433 6.49264C21.2842 6.51134 21.3148 6.54711 21.3269 6.59042C21.339 6.63373 21.3314 6.68018 21.3062 6.7174Z" fill="#3372DB"/>
</svg>
