<svg width="33" height="32" viewBox="0 0 33 32" fill="none" xmlns="http://www.w3.org/2000/svg">
<rect x="0.333984" width="32" height="32" rx="16" fill="#EFF4FF"/>
<path d="M20.834 10H17.834C17.2817 10 16.834 10.4477 16.834 11V14H20.834C20.9477 13.9975 21.0556 14.0504 21.1232 14.1419C21.1908 14.2334 21.2098 14.352 21.174 14.46L20.434 16.66C20.3658 16.8619 20.1771 16.9984 19.964 17H16.834V24.5C16.834 24.7761 16.6101 25 16.334 25H13.834C13.5578 25 13.334 24.7761 13.334 24.5V17H11.834C11.5578 17 11.334 16.7761 11.334 16.5V14.5C11.334 14.2239 11.5578 14 11.834 14H13.334V11C13.334 8.79086 15.1249 7 17.334 7H20.834C21.1101 7 21.334 7.22386 21.334 7.5V9.5C21.334 9.77614 21.1101 10 20.834 10Z" fill="#3372DB"/>
</svg>
