<svg width="16" height="16" viewBox="0 0 16 16" fill="none" xmlns="http://www.w3.org/2000/svg">
<path fill-rule="evenodd" clip-rule="evenodd" d="M8 16C12.4183 16 16 12.4183 16 8C16 3.58172 12.4183 0 8 0C3.58172 0 0 3.58172 0 8C0 12.4183 3.58172 16 8 16ZM5.7576 4.90907C5.52328 4.67475 5.14338 4.67475 4.90907 4.90907C4.67475 5.14338 4.67475 5.52328 4.90907 5.7576L7.15147 8L4.90907 10.2424C4.67475 10.4767 4.67475 10.8566 4.90907 11.0909C5.14338 11.3252 5.52328 11.3252 5.7576 11.0909L8 8.84853L10.2424 11.0909C10.4767 11.3252 10.8566 11.3252 11.0909 11.0909C11.3252 10.8566 11.3252 10.4767 11.0909 10.2424L8.84853 8L11.0909 5.7576C11.3252 5.52328 11.3252 5.14338 11.0909 4.90907C10.8566 4.67475 10.4767 4.67475 10.2424 4.90907L8 7.15147L5.7576 4.90907Z" fill="#FF6A6A"/>
</svg>
