<svg width="174" height="88" viewBox="0 0 174 88" fill="none" xmlns="http://www.w3.org/2000/svg">
<g clip-path="url(#clip0_187_2802)">
<rect x="0.799805" width="173" height="88" fill="white"/>
<g clip-path="url(#clip1_187_2802)">
<path d="M95.4541 50.4234H98.4059V39.2893H95.4541V50.4234ZM95.4541 37.553H98.4059V34.9052H95.4541V37.553Z" fill="#98A2B3"/>
<path d="M100.309 54.0696H103.26V49.1646H103.303C103.933 50.1195 104.953 50.749 106.515 50.749C109.381 50.749 111.334 48.4701 111.334 44.8672C111.334 41.3946 109.446 38.9855 106.494 38.9855C104.975 38.9855 103.933 39.7017 103.217 40.6784H103.152V39.2893H100.309V54.0696ZM105.886 48.2964C104.128 48.2964 103.195 46.9725 103.195 44.954C103.195 42.9573 103.933 41.3729 105.778 41.3729C107.601 41.3729 108.339 42.8488 108.339 44.954C108.339 47.0593 107.384 48.2964 105.886 48.2964Z" fill="#98A2B3"/>
<path d="M117.221 50.749C120 50.749 121.909 49.4033 121.909 47.1678C121.909 44.5634 119.848 44.0425 117.981 43.6518C116.396 43.3263 114.921 43.2394 114.921 42.2845C114.921 41.4814 115.68 41.0474 116.831 41.0474C118.09 41.0474 118.849 41.4814 118.979 42.6751H121.649C121.432 40.4397 119.804 38.9855 116.874 38.9855C114.335 38.9855 112.338 40.1358 112.338 42.5449C112.338 44.9757 114.292 45.5183 116.288 45.909C117.807 46.2129 119.218 46.3214 119.218 47.3849C119.218 48.1662 118.48 48.6654 117.178 48.6654C115.854 48.6654 114.942 48.1011 114.747 46.8206H112.013C112.186 49.1863 113.988 50.749 117.221 50.749Z" fill="#98A2B3"/>
<path d="M133.116 50.4233V39.2892H130.164V45.7135C130.164 47.1894 129.318 48.2311 127.929 48.2311C126.67 48.2311 126.085 47.5149 126.085 46.2127V39.2892H123.154V46.7119C123.154 49.1427 124.543 50.7271 127.018 50.7271C128.581 50.7271 129.448 50.1411 130.208 49.1211H130.273V50.4233H133.116Z" fill="#98A2B3"/>
<path d="M135.025 50.4234H137.977V43.9557C137.977 42.4798 138.781 41.5249 139.974 41.5249C141.059 41.5249 141.689 42.1759 141.689 43.4348V50.4234H144.64V43.9557C144.64 42.4798 145.4 41.5249 146.637 41.5249C147.723 41.5249 148.352 42.1759 148.352 43.4348V50.4234H151.304V42.9356C151.304 40.5047 149.979 38.9855 147.635 38.9855C146.225 38.9855 145.053 39.7234 144.293 40.9388H144.25C143.707 39.7668 142.579 38.9855 141.168 38.9855C139.627 38.9855 138.542 39.7668 137.934 40.7869H137.869V39.2893H135.025V50.4234Z" fill="#98A2B3"/>
<path d="M18.5215 50.4234H21.4732V34.9052H18.5215V50.4234Z" fill="#98A2B3"/>
<path d="M28.6916 50.749C32.1425 50.749 34.5082 48.1879 34.5082 44.8672C34.5082 41.5465 32.1425 38.9855 28.6916 38.9855C25.2407 38.9855 22.875 41.5465 22.875 44.8672C22.875 48.1879 25.2407 50.749 28.6916 50.749ZM28.6916 48.4918C26.8685 48.4918 25.8701 47.0376 25.8701 44.8672C25.8701 42.6969 26.8685 41.221 28.6916 41.221C30.4931 41.221 31.5131 42.6969 31.5131 44.8672C31.5131 47.0376 30.4931 48.4918 28.6916 48.4918Z" fill="#98A2B3"/>
<path d="M40.7846 54.2216C42.434 54.2216 43.8665 53.8309 44.7997 52.9627C45.6245 52.2031 46.1237 51.1396 46.1237 49.577V39.2893H43.2805V40.4614H43.2371C42.5643 39.5281 41.5442 38.9855 40.1551 38.9855C37.3337 38.9855 35.3369 41.1124 35.3369 44.4331C35.3369 47.7972 37.7677 49.7505 40.242 49.7505C41.6527 49.7505 42.4992 49.1863 43.1502 48.4483H43.2154V49.6638C43.2154 51.183 42.4123 51.9861 40.7411 51.9861C39.3738 51.9861 38.7444 51.4435 38.5057 50.749H35.5756C35.8795 52.9194 37.746 54.2216 40.7846 54.2216ZM40.7411 47.3849C39.2219 47.3849 38.2235 46.2779 38.2235 44.3898C38.2235 42.5232 39.2219 41.3512 40.7194 41.3512C42.4992 41.3512 43.3673 42.7403 43.3673 44.368C43.3673 46.0175 42.6077 47.3849 40.7411 47.3849Z" fill="#98A2B3"/>
<path d="M53.2981 50.749C56.749 50.749 59.1147 48.1879 59.1147 44.8672C59.1147 41.5465 56.749 38.9855 53.2981 38.9855C49.8472 38.9855 47.4814 41.5465 47.4814 44.8672C47.4814 48.1879 49.8472 50.749 53.2981 50.749ZM53.2981 48.4918C51.475 48.4918 50.4766 47.0376 50.4766 44.8672C50.4766 42.6969 51.475 41.221 53.2981 41.221C55.0995 41.221 56.1196 42.6969 56.1196 44.8672C56.1196 47.0376 55.0995 48.4918 53.2981 48.4918Z" fill="#98A2B3"/>
<path d="M152.376 37.4613C152.376 36.9619 152.781 36.557 153.281 36.557H155.089C155.589 36.557 155.994 36.9619 155.994 37.4613C155.994 37.9608 155.589 38.3657 155.089 38.3657H153.281C152.781 38.3657 152.376 37.9608 152.376 37.4613Z" fill="#98A2B3"/>
<path fill-rule="evenodd" clip-rule="evenodd" d="M77.015 31.7339C84.007 31.7339 89.6758 37.4022 89.6758 44.3944C89.6758 51.3867 84.007 57.055 77.015 57.055C70.0228 57.055 64.3545 51.3867 64.3545 44.3944C64.3545 37.4022 70.0228 31.7339 77.015 31.7339ZM76.5574 32.6813C75.113 32.8845 73.7377 34.0451 72.6701 35.9862C72.3605 36.5492 72.081 37.1713 71.8376 37.8429C73.2892 37.4781 74.8839 37.263 76.5574 37.2297V32.6813ZM70.7675 38.147C71.0703 37.1966 71.4407 36.3223 71.8682 35.5451C72.3974 34.5829 73.0255 33.7519 73.7332 33.1137C69.8851 34.2313 66.8519 37.2645 65.7343 41.1126C66.3725 40.405 67.2034 39.7769 68.1657 39.2477C68.9429 38.8202 69.8172 38.4497 70.7675 38.147ZM70.4635 39.217C70.0986 40.6686 69.8836 42.2633 69.8503 43.9368H65.3018C65.5051 42.4924 66.6657 41.1171 68.6068 40.0496C69.1698 39.7399 69.7918 39.4605 70.4635 39.217ZM70.7657 43.9368C70.8035 42.1105 71.0665 40.3959 71.5015 38.8809C73.0165 38.4459 74.7311 38.1829 76.5574 38.1451V40.122C75.8761 41.8663 74.4865 43.2557 72.7422 43.9368H70.7657ZM69.8503 44.8521H65.3018C65.5051 46.2964 66.6657 47.6717 68.6068 48.7393C69.1698 49.049 69.7918 49.3284 70.4635 49.5719C70.0986 48.1202 69.8836 46.5256 69.8503 44.8521ZM71.5015 49.908C71.0665 48.393 70.8035 46.6784 70.7657 44.8521H72.7422C74.4865 45.5331 75.8761 46.9226 76.5574 48.6669V50.6437C74.7311 50.606 73.0165 50.343 71.5015 49.908ZM70.7675 50.6419C69.8172 50.3391 68.9429 49.9687 68.1657 49.5412C67.2034 49.012 66.3725 48.3839 65.7343 47.6762C66.8519 51.5244 69.8851 54.5576 73.7332 55.6751C73.0255 55.0369 72.3974 54.206 71.8682 53.2437C71.4407 52.4666 71.0703 51.5922 70.7675 50.6419ZM76.5574 56.1076C75.113 55.9043 73.7377 54.7437 72.6701 52.8027C72.3605 52.2397 72.081 51.6176 71.8376 50.946C73.2892 51.3108 74.8839 51.5259 76.5574 51.5591V56.1076ZM80.2968 55.6751C81.0045 55.0369 81.6325 54.206 82.1617 53.2437C82.589 52.4666 82.96 51.5922 83.2626 50.6419C84.2128 50.3391 85.087 49.9687 85.8643 49.5412C86.8265 49.012 87.6577 48.3839 88.2958 47.6762C87.1779 51.5244 84.145 54.5576 80.2968 55.6751ZM82.1928 50.946C81.949 51.6176 81.6693 52.2397 81.3597 52.8027C80.2923 54.7437 78.917 55.9043 77.4726 56.1076V51.5591C79.1461 51.5259 80.7408 51.3108 82.1928 50.946ZM83.5664 49.5719C84.2381 49.3284 84.8603 49.049 85.4231 48.7393C87.3646 47.6717 88.5249 46.2964 88.7281 44.8521H84.1798C84.1463 46.5256 83.9311 48.1202 83.5664 49.5719ZM83.2645 44.8521C83.2265 46.6784 82.9638 48.393 82.5283 49.908C81.0136 50.343 79.2989 50.606 77.4726 50.6437V48.6683C78.1537 46.9234 79.5437 45.5333 81.2884 44.8521H83.2645ZM84.1798 43.9368H88.7281C88.5249 42.4924 87.3646 41.1171 85.4231 40.0496C84.8603 39.7399 84.2381 39.4605 83.5664 39.217C83.9311 40.6686 84.1463 42.2633 84.1798 43.9368ZM82.5283 38.8809C82.9638 40.3959 83.2265 42.1105 83.2645 43.9368H81.2885C79.5437 43.2556 78.1537 41.8654 77.4726 40.1206V38.1451C79.2989 38.1829 81.0136 38.4459 82.5283 38.8809ZM83.2626 38.147C84.2128 38.4497 85.087 38.8202 85.8643 39.2477C86.8265 39.7769 87.6577 40.405 88.2958 41.1126C87.1779 37.2645 84.145 34.2313 80.2968 33.1137C81.0045 33.7519 81.6325 34.5829 82.1617 35.5451C82.589 36.3223 82.96 37.1966 83.2626 38.147ZM77.4726 32.6813C78.917 32.8845 80.2923 34.0451 81.3597 35.9862C81.6693 36.5492 81.949 37.1713 82.1928 37.8429C80.7408 37.4781 79.1461 37.263 77.4726 37.2297V32.6813Z" fill="#98A2B3"/>
</g>
</g>
<defs>
<clipPath id="clip0_187_2802">
<rect x="0.799805" width="173" height="88" rx="4" fill="white"/>
</clipPath>
<clipPath id="clip1_187_2802">
<rect width="138" height="25.3211" fill="white" transform="translate(18 31.7339)"/>
</clipPath>
</defs>
</svg>
