<svg width="174" height="88" viewBox="0 0 174 88" fill="none" xmlns="http://www.w3.org/2000/svg">
<g clip-path="url(#clip0_187_2804)">
<rect x="0.200195" width="173" height="88" fill="white"/>
<g clip-path="url(#clip1_187_2804)">
<path d="M83.1328 55.7551H85.2422V47.7984H83.1328V55.7551ZM83.1328 46.5575H85.2422V44.6653H83.1328V46.5575Z" fill="#98A2B3"/>
<path d="M86.6016 58.3608H88.711V54.8555H88.742C89.1918 55.5379 89.9208 55.9877 91.0375 55.9877C93.0849 55.9877 94.4808 54.3592 94.4808 51.7845C94.4808 49.3028 93.1314 47.5812 91.022 47.5812C89.9363 47.5812 89.1918 48.093 88.6799 48.7909H88.6334V47.7983H86.6016V58.3608ZM90.5878 54.2351C89.3314 54.2351 88.6644 53.289 88.6644 51.8465C88.6644 50.4196 89.1918 49.2873 90.5102 49.2873C91.813 49.2873 92.3404 50.342 92.3404 51.8465C92.3404 53.351 91.658 54.2351 90.5878 54.2351Z" fill="#98A2B3"/>
<path d="M98.6893 55.9877C100.675 55.9877 102.039 55.0261 102.039 53.4285C102.039 51.5673 100.566 51.1951 99.2322 50.9159C98.0999 50.6832 97.0452 50.6211 97.0452 49.9387C97.0452 49.3649 97.588 49.0546 98.4101 49.0546C99.3097 49.0546 99.8526 49.3649 99.9456 50.2179H101.853C101.698 48.6204 100.535 47.5812 98.4412 47.5812C96.6264 47.5812 95.1995 48.4032 95.1995 50.1248C95.1995 51.862 96.5954 52.2498 98.0223 52.529C99.1081 52.746 100.116 52.8237 100.116 53.5837C100.116 54.142 99.5889 54.4987 98.6582 54.4987C97.7122 54.4987 97.0607 54.0955 96.9211 53.1804H94.9668C95.0909 54.871 96.3783 55.9877 98.6893 55.9877Z" fill="#98A2B3"/>
<path d="M110.048 55.7551V47.7983H107.939V52.3893C107.939 53.444 107.334 54.1885 106.341 54.1885C105.441 54.1885 105.023 53.6767 105.023 52.7461V47.7983H102.929V53.1028C102.929 54.8399 103.921 55.9722 105.69 55.9722C106.806 55.9722 107.427 55.5534 107.97 54.8244H108.016V55.7551H110.048Z" fill="#98A2B3"/>
<path d="M111.412 55.7551H113.522V51.133C113.522 50.0783 114.095 49.3959 114.948 49.3959C115.724 49.3959 116.174 49.8611 116.174 50.7608V55.7551H118.283V51.133C118.283 50.0783 118.826 49.3959 119.71 49.3959C120.486 49.3959 120.935 49.8611 120.935 50.7608V55.7551H123.045V50.4041C123.045 48.6669 122.099 47.5812 120.424 47.5812C119.415 47.5812 118.578 48.1085 118.035 48.9771H118.004C117.616 48.1395 116.81 47.5812 115.802 47.5812C114.7 47.5812 113.925 48.1395 113.49 48.8685H113.444V47.7983H111.412V55.7551Z" fill="#98A2B3"/>
<path d="M83.1641 42.1269H85.2735V31.0371H83.1641V42.1269Z" fill="#98A2B3"/>
<path d="M90.4312 42.3597C92.8974 42.3597 94.5879 40.5295 94.5879 38.1564C94.5879 35.7833 92.8974 33.9531 90.4312 33.9531C87.9651 33.9531 86.2744 35.7833 86.2744 38.1564C86.2744 40.5295 87.9651 42.3597 90.4312 42.3597ZM90.4312 40.7466C89.1283 40.7466 88.4149 39.7074 88.4149 38.1564C88.4149 36.6054 89.1283 35.5507 90.4312 35.5507C91.7185 35.5507 92.4475 36.6054 92.4475 38.1564C92.4475 39.7074 91.7185 40.7466 90.4312 40.7466Z" fill="#98A2B3"/>
<path d="M99.0738 44.8414C100.253 44.8414 101.276 44.5622 101.943 43.9417C102.533 43.3989 102.889 42.6389 102.889 41.5221V34.1703H100.857V35.0078H100.826C100.346 34.3409 99.6166 33.9531 98.6239 33.9531C96.6077 33.9531 95.1807 35.4731 95.1807 37.8462C95.1807 40.2503 96.9178 41.6462 98.686 41.6462C99.6942 41.6462 100.299 41.243 100.764 40.7156H100.811V41.5842C100.811 42.6699 100.237 43.2437 99.0427 43.2437C98.0656 43.2437 97.6158 42.856 97.4452 42.3597H95.3513C95.5685 43.9107 96.9023 44.8414 99.0738 44.8414ZM99.0427 39.9556C97.957 39.9556 97.2435 39.1646 97.2435 37.8152C97.2435 36.4813 97.957 35.6437 99.0272 35.6437C100.299 35.6437 100.919 36.6364 100.919 37.7997C100.919 38.9784 100.377 39.9556 99.0427 39.9556Z" fill="#98A2B3"/>
<path d="M108.017 42.3597C110.483 42.3597 112.174 40.5295 112.174 38.1564C112.174 35.7833 110.483 33.9531 108.017 33.9531C105.551 33.9531 103.86 35.7833 103.86 38.1564C103.86 40.5295 105.551 42.3597 108.017 42.3597ZM108.017 40.7466C106.714 40.7466 106.001 39.7074 106.001 38.1564C106.001 36.6054 106.714 35.5507 108.017 35.5507C109.304 35.5507 110.033 36.6054 110.033 38.1564C110.033 39.7074 109.304 40.7466 108.017 40.7466Z" fill="#98A2B3"/>
<path d="M114.022 39.087H123.142V37.2723H114.022V39.087Z" fill="#98A2B3"/>
<path d="M123.812 46.4467C123.812 46.0898 124.101 45.8004 124.458 45.8004H125.75C126.107 45.8004 126.397 46.0898 126.397 46.4467C126.397 46.8036 126.107 47.0929 125.75 47.0929H124.458C124.101 47.0929 123.812 46.8036 123.812 46.4467Z" fill="#98A2B3"/>
<path fill-rule="evenodd" clip-rule="evenodd" d="M61.8309 28.5714C70.3519 28.5714 77.2595 35.479 77.2595 44C77.2595 52.521 70.3519 59.4286 61.8309 59.4286C53.31 59.4286 46.4023 52.521 46.4023 44C46.4023 35.479 53.31 28.5714 61.8309 28.5714ZM61.2732 29.7259C59.5132 29.9736 57.8371 31.388 56.5361 33.7534C56.1588 34.4395 55.8182 35.1976 55.5215 36.016C57.2905 35.5715 59.2338 35.3094 61.2732 35.2689V29.7259ZM54.2175 36.3866C54.5865 35.2285 55.0379 34.163 55.5589 33.2159C56.2038 32.0433 56.9692 31.0307 57.8316 30.2529C53.1422 31.6149 49.4458 35.3112 48.0839 40.0007C48.8616 39.1383 49.8742 38.3729 51.0468 37.728C51.994 37.207 53.0594 36.7556 54.2175 36.3866ZM53.8469 37.6905C53.4024 39.4596 53.1403 41.4029 53.0998 43.4423H47.5569C47.8046 41.6821 49.2189 40.0061 51.5843 38.7052C52.2705 38.3278 53.0285 37.9873 53.8469 37.6905ZM54.2154 43.4423C54.2614 41.2167 54.5818 39.1272 55.1119 37.281C56.9581 36.7509 59.0477 36.4304 61.2732 36.3844V38.7935C60.443 40.9191 58.7495 42.6123 56.6238 43.4423H54.2154ZM53.0998 44.5576H47.5569C47.8046 46.3178 49.2189 47.9937 51.5843 49.2948C52.2705 49.6721 53.0285 50.0127 53.8469 50.3094C53.4024 48.5404 53.1403 46.5971 53.0998 44.5576ZM55.1119 50.719C54.5818 48.8728 54.2614 46.7833 54.2154 44.5576H56.6238C58.7495 45.3876 60.443 47.0809 61.2732 49.2065V51.6156C59.0477 51.5695 56.9581 51.2491 55.1119 50.719ZM54.2175 51.6134C53.0594 51.2444 51.994 50.793 51.0468 50.272C49.8742 49.6271 48.8616 48.8617 48.0839 47.9993C49.4458 52.6887 53.1422 56.3851 57.8316 57.747C56.9692 56.9692 56.2038 55.9567 55.5589 54.784C55.0379 53.8369 54.5865 52.7714 54.2175 51.6134ZM61.2732 58.274C59.5132 58.0263 57.8371 56.612 56.5361 54.2466C56.1588 53.5605 55.8182 52.8024 55.5215 51.984C57.2905 52.4285 59.2338 52.6906 61.2732 52.7311V58.274ZM65.8302 57.747C66.6926 56.9692 67.458 55.9567 68.103 54.784C68.6239 53.8369 69.0753 52.7714 69.4443 51.6134C70.6024 51.2444 71.6679 50.793 72.615 50.272C73.7876 49.6271 74.8002 48.8617 75.5779 47.9993C74.216 52.6887 70.5197 56.3851 65.8302 57.747ZM68.1403 51.984C67.8436 52.8024 67.5031 53.5605 67.1257 54.2466C65.8248 56.612 64.1487 58.0263 62.3886 58.274V52.7311C64.428 52.6906 66.3713 52.4285 68.1403 51.984ZM69.8149 50.3094C70.6333 50.0127 71.3914 49.6721 72.0775 49.2948C74.4429 47.9937 75.8573 46.3178 76.105 44.5576H70.562C70.5215 46.5971 70.2594 48.5404 69.8149 50.3094ZM69.4465 44.5576C69.4005 46.7833 69.08 48.8728 68.5499 50.719C66.7037 51.2491 64.6142 51.5695 62.3886 51.6156V49.2083C63.2186 47.0819 64.9124 45.3879 67.0387 44.5576H69.4465ZM70.562 43.4423H76.105C75.8573 41.6821 74.4429 40.0061 72.0775 38.7052C71.3914 38.3278 70.6333 37.9873 69.8149 37.6905C70.2594 39.4596 70.5215 41.4029 70.562 43.4423ZM68.5499 37.281C69.08 39.1272 69.4005 41.2167 69.4465 43.4423H67.0387C64.9124 42.6121 63.2186 40.918 62.3886 38.7917V36.3844C64.6142 36.4304 66.7037 36.7509 68.5499 37.281ZM69.4443 36.3866C70.6024 36.7556 71.6679 37.207 72.615 37.728C73.7876 38.3729 74.8002 39.1383 75.5779 40.0007C74.216 35.3112 70.5197 31.6149 65.8302 30.2529C66.6926 31.0307 67.458 32.0433 68.103 33.2159C68.6239 34.163 69.0753 35.2285 69.4443 36.3866ZM62.3886 29.7259C64.1487 29.9736 65.8248 31.388 67.1257 33.7534C67.5031 34.4395 67.8436 35.1976 68.1403 36.016C66.3713 35.5715 64.428 35.3094 62.3886 35.2689V29.7259Z" fill="#98A2B3"/>
</g>
</g>
<defs>
<clipPath id="clip0_187_2804">
<rect x="0.200195" width="173" height="88" rx="4" fill="white"/>
</clipPath>
<clipPath id="clip1_187_2804">
<rect width="81" height="30.8571" fill="white" transform="translate(46 28.5714)"/>
</clipPath>
</defs>
</svg>
