<svg width="174" height="88" viewBox="0 0 174 88" fill="none" xmlns="http://www.w3.org/2000/svg">
<g clip-path="url(#clip0_187_2806)">
<rect x="0.599609" width="173" height="88" fill="white"/>
<g clip-path="url(#clip1_187_2806)">
<path fill-rule="evenodd" clip-rule="evenodd" d="M44.7481 34.0383V55.562H39V34.0383H44.7481Z" fill="#98A2B3"/>
<path fill-rule="evenodd" clip-rule="evenodd" d="M47.6221 34.0383H59.8369C63.8052 34.0383 67.0221 37.2505 67.0221 41.2129C67.0221 45.1753 63.8052 48.3874 59.8369 48.3874H53.3702V55.562H47.6221V34.0383ZM53.3702 42.6478H59.8369C60.6306 42.6478 61.2739 42.0054 61.2739 41.2129C61.2739 40.4204 60.6306 39.778 59.8369 39.778H53.3702V42.6478Z" fill="#98A2B3"/>
<path fill-rule="evenodd" clip-rule="evenodd" d="M88.5782 34.0383V45.1589C88.5782 47.7344 90.6692 49.8224 93.2486 49.8224C95.828 49.8224 97.919 47.7344 97.919 45.1589V34.0383H103.667V45.1589C103.667 50.9044 99.0027 55.562 93.2486 55.562C87.4946 55.562 82.8301 50.9044 82.8301 45.1589V34.0383H88.5782Z" fill="#98A2B3"/>
<path fill-rule="evenodd" clip-rule="evenodd" d="M69.1778 44.0827C69.1778 38.5353 73.6815 34.0383 79.2371 34.0383H80.6741V39.778H79.2371C76.8561 39.778 74.926 41.7053 74.926 44.0827V44.8002C74.926 50.7437 70.1006 55.562 64.1482 55.562H63.4297V49.8224H64.1482C66.926 49.8224 69.1778 47.5738 69.1778 44.8002V44.0827Z" fill="#98A2B3"/>
<path d="M136 34.7559C136 35.9446 135.035 36.9082 133.844 36.9082C132.653 36.9082 131.688 35.9446 131.688 34.7559C131.688 33.5672 132.653 32.6035 133.844 32.6035C135.035 32.6035 136 33.5672 136 34.7559Z" fill="#98A2B3"/>
<path d="M109.838 55.5621L112.581 44.0932L114.621 50.9929C115.836 55.1081 121.674 55.1081 122.89 50.9929L124.929 44.0932L127.672 55.5621H133.581L129.269 37.5278C128.243 33.2391 122.191 33.0804 120.94 37.3094L118.755 44.7046L116.57 37.3094C115.32 33.0804 109.267 33.2391 108.241 37.5278L103.929 55.5621H109.838Z" fill="#98A2B3"/>
</g>
</g>
<defs>
<clipPath id="clip0_187_2806">
<rect x="0.599609" width="173" height="88" rx="4" fill="white"/>
</clipPath>
<clipPath id="clip1_187_2806">
<rect width="97" height="22.9586" fill="white" transform="translate(39 32.6035)"/>
</clipPath>
</defs>
</svg>
