<svg width="174" height="88" viewBox="0 0 174 88" fill="none" xmlns="http://www.w3.org/2000/svg">
<g clip-path="url(#clip0_187_2800)">
<rect x="0.400391" width="173" height="88" fill="white"/>
<path d="M46.5379 41.4436C48.9828 41.4436 49.5329 42.5056 49.5329 43.8301C49.5329 45.2341 48.8675 46.24 46.548 46.24C44.2433 46.24 43.5771 45.2926 43.5771 43.8301C43.5771 42.391 44.3033 41.4436 46.5379 41.4436Z" fill="#98A2B3"/>
<path d="M72.0887 41.4436C74.5336 41.4436 75.0837 42.5056 75.0837 43.8301C75.0837 45.2341 74.4175 46.24 72.0988 46.24C69.7949 46.24 69.1279 45.2926 69.1279 43.8301C69.1279 42.391 69.8541 41.4436 72.0887 41.4436Z" fill="#98A2B3"/>
<path fill-rule="evenodd" clip-rule="evenodd" d="M24.8906 57.635V30.0121H148.445V57.635H24.8906ZM83.7766 56.0767H146.887V31.5704H83.7766V56.0767ZM46.5494 48.5915C50.89 48.5915 52.7147 46.7192 52.7147 43.7951C52.7147 40.8234 50.6593 39.0571 46.5494 39.0571C42.5025 39.0571 40.3723 40.9754 40.3723 43.7951C40.3723 46.9771 42.6069 48.5915 46.5494 48.5915ZM31.4582 39.2675V48.4512H40.2189V46.0055H34.6277V39.2675H31.4582ZM62.5194 48.4512L62.4376 47.5615C61.3773 48.3182 60.0867 48.6823 58.7873 48.5915C56.834 48.5915 55.2072 48.0063 54.2948 46.8252C53.693 45.9628 53.3891 44.9276 53.4292 43.8769C53.395 42.8482 53.7094 41.8381 54.3213 41.0104C55.2446 39.8643 56.9182 39.1039 59.4099 39.1039C62.2763 39.1039 63.9608 39.9812 64.6854 41.4553C64.841 41.8025 64.9324 42.1749 64.955 42.5547H61.9226C61.8462 42.3239 61.704 42.1206 61.5136 41.9696C60.9095 41.5691 60.1882 41.3839 59.466 41.4436C59.0424 41.3923 58.6126 41.4314 58.2052 41.5585C57.7979 41.6856 57.4221 41.8976 57.1028 42.1807C56.7402 42.677 56.57 43.288 56.6237 43.9003C56.5816 44.4844 56.7381 45.0656 57.0678 45.5497C57.39 45.8499 57.773 46.0773 58.1908 46.2166C58.6086 46.3558 59.0514 46.4037 59.4894 46.3569C60.3591 46.4277 61.2226 46.1594 61.8992 45.6082C62.0445 45.4265 62.1447 45.2128 62.1914 44.9848H58.9284V43.0113H65.0345V48.4512H62.5194ZM72.1005 48.5915C76.4403 48.5915 78.2659 46.7192 78.2659 43.7951C78.2659 40.8234 76.2073 39.0571 72.1005 39.0571C68.0537 39.0571 65.9235 40.9754 65.9235 43.7951C65.9235 46.9771 68.1581 48.5915 72.1005 48.5915Z" fill="#98A2B3"/>
<path d="M89.1162 48.4162V39.2324H91.3757V48.4162H89.1162Z" fill="#98A2B3"/>
<path d="M102.978 44.5788C102.406 45.3276 101.42 45.6696 100.031 45.6782C99.7378 45.6782 95.8538 45.6665 95.8538 45.6665V48.4161H93.6426V39.2324H100.032C100.544 39.1782 101.062 39.2325 101.551 39.3917C102.041 39.551 102.491 39.8115 102.874 40.1564C103.379 40.8142 103.624 41.6343 103.564 42.4611C103.616 43.2132 103.409 43.9603 102.978 44.5788ZM101.165 41.5846C100.931 41.234 100.427 41.0392 99.5742 41.0392H95.8421V43.8348H99.55C100.462 43.8348 100.943 43.6478 101.165 43.2847C101.297 43.0289 101.354 42.7408 101.329 42.4541C101.348 42.1551 101.292 41.856 101.165 41.5846Z" fill="#98A2B3"/>
<path d="M110.081 48.5565C105.915 48.5565 104.641 46.9982 104.641 45.4563H107.004C107.004 46.2168 108.045 46.7902 110.186 46.7902C112.314 46.7902 112.876 46.4154 112.876 45.8069C112.876 45.1283 112.455 44.9179 110.478 44.6959C110.088 44.6608 109.028 44.5322 108.63 44.4738C105.825 44.1575 104.745 43.3269 104.745 41.8411C104.745 40.2735 106.325 39.0923 109.753 39.0923C113.473 39.0923 114.9 40.5547 114.9 42.0756H112.563C112.563 41.3035 111.686 40.8586 109.615 40.8586C107.485 40.8586 107.029 41.1508 107.029 41.7242C107.029 42.321 107.497 42.508 109.756 42.7768C110.271 42.8477 111.418 42.9763 111.733 43.0106C114.12 43.256 115.196 44.1216 115.196 45.6542C115.193 47.4797 113.555 48.5565 110.081 48.5565Z" fill="#98A2B3"/>
<path d="M121.85 48.5447C118.798 48.5447 116.809 47.3394 116.809 44.8048V39.2324H119.042V44.836C119.042 45.9946 119.991 46.7659 121.944 46.7659C123.71 46.7659 124.764 46.0413 124.764 44.836V39.2324H126.975V45.0129C126.975 47.3168 125.126 48.5447 121.85 48.5447Z" fill="#98A2B3"/>
<path d="M139.082 48.4162V42.2859L136.216 48.4162H134.041L131.256 42.2859V48.4162H129.152V39.2324H132.002L135.161 46.2283L138.39 39.2324H141.195V48.4162H139.082Z" fill="#98A2B3"/>
</g>
<defs>
<clipPath id="clip0_187_2800">
<rect x="0.400391" width="173" height="88" rx="4" fill="white"/>
</clipPath>
</defs>
</svg>
