<svg width="173" height="88" viewBox="0 0 173 88" fill="none" xmlns="http://www.w3.org/2000/svg">
<g clip-path="url(#clip0_187_2808)">
<rect width="173" height="88" fill="white"/>
<g clip-path="url(#clip1_187_2808)">
<path d="M33.0002 56C39.6278 56 45.0002 50.6276 45.0002 44V35.6C45.0002 34.6452 44.621 33.7295 43.9458 33.0544C43.2707 32.3793 42.355 32 41.4002 32H33.6002V37.2644C33.6002 38.4656 33.6734 39.71 34.3034 40.7324C34.7545 41.4651 35.3578 42.0923 36.0725 42.5713C36.7873 43.0503 37.5967 43.37 38.4458 43.5086L38.6756 43.5458C38.7704 43.5782 38.8526 43.6394 38.9109 43.7208C38.9691 43.8023 39.0004 43.8999 39.0004 44C39.0004 44.1001 38.9691 44.1977 38.9109 44.2792C38.8526 44.3606 38.7704 44.4218 38.6756 44.4542L38.4458 44.4914C37.2052 44.6941 36.0595 45.2813 35.1705 46.1703C34.2816 47.0592 33.6943 48.2049 33.4916 49.4456L33.4544 49.6754C33.4221 49.7701 33.3609 49.8524 33.2794 49.9106C33.198 49.9688 33.1004 50.0002 33.0002 50.0002C32.9001 50.0002 32.8025 49.9688 32.7211 49.9106C32.6396 49.8524 32.5784 49.7701 32.546 49.6754L32.5088 49.4456C32.3702 48.5965 32.0505 47.7871 31.5715 47.0723C31.0925 46.3576 30.4653 45.7542 29.7326 45.3032C28.7102 44.6732 27.4658 44.6 26.2646 44.6H21.0146C21.3284 50.9486 26.5742 56 33.0002 56Z" fill="#98A2B3"/>
<path d="M21 43.4H26.2644C27.4656 43.4 28.71 43.3268 29.7324 42.6968C30.5316 42.2044 31.2044 41.5316 31.6968 40.7324C32.3268 39.71 32.4 38.4656 32.4 37.2644V32H24.6C23.6452 32 22.7295 32.3793 22.0544 33.0544C21.3793 33.7295 21 34.6452 21 35.6V43.4ZM48.873 33.2C48.873 33.5183 48.7466 33.8235 48.5215 34.0485C48.2965 34.2736 47.9913 34.4 47.673 34.4C47.3547 34.4 47.0495 34.2736 46.8245 34.0485C46.5994 33.8235 46.473 33.5183 46.473 33.2C46.473 32.8817 46.5994 32.5765 46.8245 32.3515C47.0495 32.1264 47.3547 32 47.673 32C47.9913 32 48.2965 32.1264 48.5215 32.3515C48.7466 32.5765 48.873 32.8817 48.873 33.2ZM148.027 39.2624C151.381 39.2624 153 41.6054 153 44.3192V49.4162H149.489V44.924C149.489 43.694 149.041 42.6788 147.754 42.6788C146.467 42.6788 146.038 43.694 146.038 44.924V49.4156H142.527V44.924C142.527 43.694 142.098 42.6788 140.81 42.6788C139.523 42.6788 139.075 43.694 139.075 44.924V49.4156H135.565V44.3186C135.565 41.6048 137.183 39.2618 140.537 39.2618C142.371 39.2618 143.697 39.9842 144.302 41.1752C144.945 39.9842 146.35 39.2612 148.027 39.2612V39.2624ZM129.256 46.292C130.387 46.292 130.875 45.257 130.875 44.0264V39.6524H134.385V44.456C134.385 47.3264 132.708 49.709 129.256 49.709C125.804 49.709 124.127 47.327 124.127 44.456V39.6524H127.637V44.0264C127.637 45.2564 128.125 46.292 129.256 46.292ZM118.965 49.7282C116.761 49.7282 115.337 48.9668 114.499 47.483L117.034 46.0574C117.385 46.682 117.911 46.9946 118.789 46.9946C119.511 46.9946 119.842 46.7408 119.842 46.4282C119.842 45.2372 114.694 46.448 114.694 42.6602C114.694 40.8242 116.254 39.3404 118.906 39.3404C121.227 39.3404 122.495 40.4726 123.061 41.5664L120.525 43.0112C120.311 42.4256 119.647 42.074 118.984 42.074C118.477 42.074 118.204 42.2888 118.204 42.5816C118.204 43.7924 123.353 42.6794 123.353 46.3502C123.353 48.4004 121.344 49.7282 118.965 49.7282ZM106.7 53.9072H103.189V44.5148C103.189 41.5268 105.432 39.3596 108.553 39.3596C111.595 39.3596 113.916 41.6834 113.916 44.5148C113.916 47.639 111.848 49.709 108.748 49.709C108.026 49.709 107.305 49.4942 106.7 49.1618V53.9072ZM108.553 46.409C109.664 46.409 110.405 45.5498 110.405 44.534C110.405 43.4996 109.664 42.6596 108.553 42.6596C107.441 42.6596 106.7 43.4996 106.7 44.5346C106.7 45.5498 107.441 46.409 108.553 46.409ZM99.6726 38.618C98.5218 38.618 97.5666 37.661 97.5666 36.509C97.5666 35.357 98.5218 34.4 99.6726 34.4C100.823 34.4 101.779 35.357 101.779 36.509C101.779 37.661 100.823 38.618 99.6726 38.618ZM97.9176 39.6524H101.428V49.4162H97.9176V39.6524ZM91.182 49.709C88.1394 49.709 85.8186 47.366 85.8186 44.5148C85.8186 41.6834 88.1394 39.3404 91.182 39.3404C94.2246 39.3404 96.5454 41.6834 96.5454 44.5148C96.5454 47.366 94.2246 49.709 91.182 49.709ZM91.182 46.409C92.2938 46.409 93.0348 45.5498 93.0348 44.534C93.0348 43.4996 92.2938 42.6404 91.182 42.6404C90.0702 42.6404 89.3292 43.4996 89.3292 44.534C89.3292 45.5498 90.0702 46.409 91.182 46.409ZM79.1898 54.2C76.7718 54.2 75.0162 53.126 74.1192 51.212L77.025 49.6502C77.337 50.3144 77.922 50.9978 79.131 50.9978C80.3994 50.9978 81.2376 50.1968 81.3354 48.791C80.8674 49.2014 80.1258 49.5134 79.0146 49.5134C76.3032 49.5134 74.1186 47.4242 74.1186 44.495C74.1186 41.6642 76.44 39.3596 79.4826 39.3596C82.6032 39.3596 84.846 41.5274 84.846 44.5148V48.3812C84.846 51.896 82.4076 54.2 79.1898 54.2ZM79.4238 46.214C80.4768 46.214 81.2766 45.491 81.2766 44.417C81.2766 43.3628 80.4774 42.6596 79.4238 42.6596C78.39 42.6596 77.571 43.3628 77.571 44.4176C77.571 45.4916 78.39 46.2134 79.4238 46.2134V46.214ZM68.1642 49.709C65.1216 49.709 62.8002 47.366 62.8002 44.5148C62.8002 41.6834 65.1216 39.3404 68.1642 39.3404C71.2062 39.3404 73.5276 41.6834 73.5276 44.5148C73.5276 47.366 71.2068 49.709 68.1642 49.709ZM68.1642 46.409C69.276 46.409 70.017 45.5498 70.017 44.534C70.017 43.4996 69.276 42.6404 68.1642 42.6404C67.0524 42.6404 66.3114 43.4996 66.3114 44.534C66.3114 45.5498 67.0524 46.409 68.1642 46.409ZM56.4078 36.236V46.0964H62.22V49.4162H55.92C53.697 49.4162 52.8 48.2444 52.8 46.3892V36.236H56.4078Z" fill="#98A2B3"/>
</g>
</g>
<defs>
<clipPath id="clip0_187_2808">
<rect width="173" height="88" rx="4" fill="white"/>
</clipPath>
<clipPath id="clip1_187_2808">
<rect width="132" height="24" fill="white" transform="translate(21 32)"/>
</clipPath>
</defs>
</svg>
